STARTFONT 2.1
COMMENT ======================================================================
COMMENT Copyright (C) 1994-2020 Darren Embry.  SIL OFL 1.1.
COMMENT ======================================================================
FONT -dse-DSE Typewriter-medium-r-normal--30-217-100-100-c-150-iso8859-1
SIZE 22 100 100
FONTBOUNDINGBOX 15 30 0 -8
STARTPROPERTIES 20
FONTNAME_REGISTRY ""
FOUNDRY "dse"
FAMILY_NAME "DSE Typewriter"
WEIGHT_NAME "medium"
SLANT "r"
SETWIDTH_NAME "normal"
ADD_STYLE_NAME ""
PIXEL_SIZE 30
POINT_SIZE 217
RESOLUTION_X 100
RESOLUTION_Y 100
SPACING "C"
AVERAGE_WIDTH 150
CHARSET_REGISTRY "ISO8859"
CHARSET_ENCODING "1"
DEFAULT_CHAR 32
FONT_DESCENT 8
FONT_ASCENT 22
COPYRIGHT "Copyright (C) 1994-2020 Darren Embry"
_XMBDFED_INFO "Edited with xmbdfed 4.7."
ENDPROPERTIES
CHARS 256
STARTCHAR char0
ENCODING 0
SWIDTH 500 0
DWIDTH 15 0
BBX 15 30 0 -8
BITMAP
0000
0000
0000
0000
0000
0000
0000
0000
0000
0000
0000
0000
0000
0000
0000
0000
0000
0000
0000
0000
0000
0000
0000
0000
0000
0000
0000
0000
0000
0000
ENDCHAR
STARTCHAR char1
ENCODING 1
SWIDTH 500 0
DWIDTH 15 0
BBX 15 30 0 -8
BITMAP
0000
0000
0000
0000
0000
0000
0000
0000
0000
0000
0000
0000
0000
0000
0000
0000
0000
0000
0000
0000
0000
0000
0000
0000
0000
0000
0000
0000
0000
0000
ENDCHAR
STARTCHAR char2
ENCODING 2
SWIDTH 500 0
DWIDTH 15 0
BBX 15 30 0 -8
BITMAP
0000
0000
0000
0000
0000
0000
0000
0000
0000
0000
0000
0000
0000
0000
0000
0000
0000
0000
0000
0000
0000
0000
0000
0000
0000
0000
0000
0000
0000
0000
ENDCHAR
STARTCHAR char3
ENCODING 3
SWIDTH 500 0
DWIDTH 15 0
BBX 15 30 0 -8
BITMAP
0000
0000
0000
0000
0000
0000
0000
0000
0000
0000
0000
0000
0000
0000
0000
0000
0000
0000
0000
0000
0000
0000
0000
0000
0000
0000
0000
0000
0000
0000
ENDCHAR
STARTCHAR char4
ENCODING 4
SWIDTH 500 0
DWIDTH 15 0
BBX 15 30 0 -8
BITMAP
0000
0000
0000
0000
0000
0000
0000
0000
0000
0000
0000
0000
0000
0000
0000
0000
0000
0000
0000
0000
0000
0000
0000
0000
0000
0000
0000
0000
0000
0000
ENDCHAR
STARTCHAR char5
ENCODING 5
SWIDTH 500 0
DWIDTH 15 0
BBX 15 30 0 -8
BITMAP
0000
0000
0000
0000
0000
0000
0000
0000
0000
0000
0000
0000
0000
0000
0000
0000
0000
0000
0000
0000
0000
0000
0000
0000
0000
0000
0000
0000
0000
0000
ENDCHAR
STARTCHAR char6
ENCODING 6
SWIDTH 500 0
DWIDTH 15 0
BBX 15 30 0 -8
BITMAP
0000
0000
0000
0000
0000
0000
0000
0000
0000
0000
0000
0000
0000
0000
0000
0000
0000
0000
0000
0000
0000
0000
0000
0000
0000
0000
0000
0000
0000
0000
ENDCHAR
STARTCHAR char7
ENCODING 7
SWIDTH 500 0
DWIDTH 15 0
BBX 15 30 0 -8
BITMAP
0000
0000
0000
0000
0000
0000
0000
0000
0000
0000
0000
0000
0000
0000
0000
0000
0000
0000
0000
0000
0000
0000
0000
0000
0000
0000
0000
0000
0000
0000
ENDCHAR
STARTCHAR char8
ENCODING 8
SWIDTH 500 0
DWIDTH 15 0
BBX 15 30 0 -8
BITMAP
0000
0000
0000
0000
0000
0000
0000
0000
0000
0000
0000
0000
0000
0000
0000
0000
0000
0000
0000
0000
0000
0000
0000
0000
0000
0000
0000
0000
0000
0000
ENDCHAR
STARTCHAR char9
ENCODING 9
SWIDTH 500 0
DWIDTH 15 0
BBX 15 30 0 -8
BITMAP
0000
0000
0000
0000
0000
0000
0000
0000
0000
0000
0000
0000
0000
0000
0000
0000
0000
0000
0000
0000
0000
0000
0000
0000
0000
0000
0000
0000
0000
0000
ENDCHAR
STARTCHAR char10
ENCODING 10
SWIDTH 500 0
DWIDTH 15 0
BBX 15 30 0 -8
BITMAP
0000
0000
0000
0000
0000
0000
0000
0000
0000
0000
0000
0000
0000
0000
0000
0000
0000
0000
0000
0000
0000
0000
0000
0000
0000
0000
0000
0000
0000
0000
ENDCHAR
STARTCHAR char11
ENCODING 11
SWIDTH 500 0
DWIDTH 15 0
BBX 15 30 0 -8
BITMAP
0300
0300
0300
0300
0300
0300
0300
0300
0300
0300
0300
0300
0300
0300
FF00
FF00
0000
0000
0000
0000
0000
0000
0000
0000
0000
0000
0000
0000
0000
0000
ENDCHAR
STARTCHAR char12
ENCODING 12
SWIDTH 500 0
DWIDTH 15 0
BBX 15 30 0 -8
BITMAP
0000
0000
0000
0000
0000
0000
0000
0000
0000
0000
0000
0000
0000
0000
FF00
FF00
0300
0300
0300
0300
0300
0300
0300
0300
0300
0300
0300
0300
0300
0300
ENDCHAR
STARTCHAR char13
ENCODING 13
SWIDTH 500 0
DWIDTH 15 0
BBX 15 30 0 -8
BITMAP
0000
0000
0000
0000
0000
0000
0000
0000
0000
0000
0000
0000
0000
0000
03FE
03FE
0300
0300
0300
0300
0300
0300
0300
0300
0300
0300
0300
0300
0300
0300
ENDCHAR
STARTCHAR char14
ENCODING 14
SWIDTH 500 0
DWIDTH 15 0
BBX 15 30 0 -8
BITMAP
0300
0300
0300
0300
0300
0300
0300
0300
0300
0300
0300
0300
0300
0300
03FE
03FE
0000
0000
0000
0000
0000
0000
0000
0000
0000
0000
0000
0000
0000
0000
ENDCHAR
STARTCHAR char15
ENCODING 15
SWIDTH 500 0
DWIDTH 15 0
BBX 15 30 0 -8
BITMAP
0300
0300
0300
0300
0300
0300
0300
0300
0300
0300
0300
0300
0300
0300
FFFE
FFFE
0300
0300
0300
0300
0300
0300
0300
0300
0300
0300
0300
0300
0300
0300
ENDCHAR
STARTCHAR char16
ENCODING 16
SWIDTH 500 0
DWIDTH 15 0
BBX 15 30 0 -8
BITMAP
0000
0000
FFFE
FFFE
0000
0000
0000
0000
0000
0000
0000
0000
0000
0000
0000
0000
0000
0000
0000
0000
0000
0000
0000
0000
0000
0000
0000
0000
0000
0000
ENDCHAR
STARTCHAR char17
ENCODING 17
SWIDTH 500 0
DWIDTH 15 0
BBX 15 30 0 -8
BITMAP
0000
0000
0000
0000
0000
0000
0000
0000
FFFE
FFFE
0000
0000
0000
0000
0000
0000
0000
0000
0000
0000
0000
0000
0000
0000
0000
0000
0000
0000
0000
0000
ENDCHAR
STARTCHAR char18
ENCODING 18
SWIDTH 500 0
DWIDTH 15 0
BBX 15 30 0 -8
BITMAP
0000
0000
0000
0000
0000
0000
0000
0000
0000
0000
0000
0000
0000
0000
FFFE
FFFE
0000
0000
0000
0000
0000
0000
0000
0000
0000
0000
0000
0000
0000
0000
ENDCHAR
STARTCHAR char19
ENCODING 19
SWIDTH 500 0
DWIDTH 15 0
BBX 15 30 0 -8
BITMAP
0000
0000
0000
0000
0000
0000
0000
0000
0000
0000
0000
0000
0000
0000
0000
0000
0000
0000
0000
0000
FFFE
FFFE
0000
0000
0000
0000
0000
0000
0000
0000
ENDCHAR
STARTCHAR char20
ENCODING 20
SWIDTH 500 0
DWIDTH 15 0
BBX 15 30 0 -8
BITMAP
0000
0000
0000
0000
0000
0000
0000
0000
0000
0000
0000
0000
0000
0000
0000
0000
0000
0000
0000
0000
0000
0000
0000
0000
0000
0000
FFFE
FFFE
0000
0000
ENDCHAR
STARTCHAR char21
ENCODING 21
SWIDTH 500 0
DWIDTH 15 0
BBX 15 30 0 -8
BITMAP
0300
0300
0300
0300
0300
0300
0300
0300
0300
0300
0300
0300
0300
0300
03FE
03FE
0300
0300
0300
0300
0300
0300
0300
0300
0300
0300
0300
0300
0300
0300
ENDCHAR
STARTCHAR char22
ENCODING 22
SWIDTH 500 0
DWIDTH 15 0
BBX 15 30 0 -8
BITMAP
0300
0300
0300
0300
0300
0300
0300
0300
0300
0300
0300
0300
0300
0300
FF00
FF00
0300
0300
0300
0300
0300
0300
0300
0300
0300
0300
0300
0300
0300
0300
ENDCHAR
STARTCHAR char23
ENCODING 23
SWIDTH 500 0
DWIDTH 15 0
BBX 15 30 0 -8
BITMAP
0300
0300
0300
0300
0300
0300
0300
0300
0300
0300
0300
0300
0300
0300
FFFE
FFFE
0000
0000
0000
0000
0000
0000
0000
0000
0000
0000
0000
0000
0000
0000
ENDCHAR
STARTCHAR char24
ENCODING 24
SWIDTH 500 0
DWIDTH 15 0
BBX 15 30 0 -8
BITMAP
0000
0000
0000
0000
0000
0000
0000
0000
0000
0000
0000
0000
0000
0000
FFFE
FFFE
0300
0300
0300
0300
0300
0300
0300
0300
0300
0300
0300
0300
0300
0300
ENDCHAR
STARTCHAR char25
ENCODING 25
SWIDTH 500 0
DWIDTH 15 0
BBX 15 30 0 -8
BITMAP
0300
0300
0300
0300
0300
0300
0300
0300
0300
0300
0300
0300
0300
0300
0300
0300
0300
0300
0300
0300
0300
0300
0300
0300
0300
0300
0300
0300
0300
0300
ENDCHAR
STARTCHAR char26
ENCODING 26
SWIDTH 500 0
DWIDTH 15 0
BBX 15 30 0 -8
BITMAP
0000
0000
0000
0000
0000
0000
0000
0000
0000
0000
0000
0000
0000
0000
0000
0000
0000
0000
0000
0000
0000
0000
0000
0000
0000
0000
0000
0000
0000
0000
ENDCHAR
STARTCHAR char27
ENCODING 27
SWIDTH 500 0
DWIDTH 15 0
BBX 15 30 0 -8
BITMAP
0000
0000
0000
0000
0000
0000
0000
0000
0000
0000
0000
0000
0000
0000
0000
0000
0000
0000
0000
0000
0000
0000
0000
0000
0000
0000
0000
0000
0000
0000
ENDCHAR
STARTCHAR char28
ENCODING 28
SWIDTH 500 0
DWIDTH 15 0
BBX 15 30 0 -8
BITMAP
0000
0000
0000
0000
0000
0000
0000
0000
0000
0000
0000
0000
0000
0000
0000
0000
0000
0000
0000
0000
0000
0000
0000
0000
0000
0000
0000
0000
0000
0000
ENDCHAR
STARTCHAR char29
ENCODING 29
SWIDTH 500 0
DWIDTH 15 0
BBX 15 30 0 -8
BITMAP
0000
0000
0000
0000
0000
0000
0000
0000
0000
0000
0000
0000
0000
0000
0000
0000
0000
0000
0000
0000
0000
0000
0000
0000
0000
0000
0000
0000
0000
0000
ENDCHAR
STARTCHAR char30
ENCODING 30
SWIDTH 500 0
DWIDTH 15 0
BBX 15 30 0 -8
BITMAP
0000
0000
0000
0000
0000
0000
0000
0000
0000
0000
0000
0000
0000
0000
0000
0000
0000
0000
0000
0000
0000
0000
0000
0000
0000
0000
0000
0000
0000
0000
ENDCHAR
STARTCHAR char31
ENCODING 31
SWIDTH 500 0
DWIDTH 15 0
BBX 15 30 0 -8
BITMAP
0000
0000
0000
0000
0000
0000
0000
0000
0000
0000
0000
0000
0000
0000
0000
0000
0000
0000
0000
0000
0000
0000
0000
0000
0000
0000
0000
0000
0000
0000
ENDCHAR
STARTCHAR char32
ENCODING 32
SWIDTH 500 0
DWIDTH 15 0
BBX 15 30 0 -8
BITMAP
0000
0000
0000
0000
0000
0000
0000
0000
0000
0000
0000
0000
0000
0000
0000
0000
0000
0000
0000
0000
0000
0000
0000
0000
0000
0000
0000
0000
0000
0000
ENDCHAR
STARTCHAR char33
ENCODING 33
SWIDTH 500 0
DWIDTH 15 0
BBX 15 30 0 -8
BITMAP
0000
0000
0000
0000
0300
0780
0780
0780
0780
0780
0780
0300
0300
0300
0300
0300
0000
0000
0300
0780
0780
0300
0000
0000
0000
0000
0000
0000
0000
0000
ENDCHAR
STARTCHAR char34
ENCODING 34
SWIDTH 500 0
DWIDTH 15 0
BBX 15 30 0 -8
BITMAP
0000
0000
0000
0840
0C60
1CE0
1CE0
1CE0
1CE0
18C0
0840
0000
0000
0000
0000
0000
0000
0000
0000
0000
0000
0000
0000
0000
0000
0000
0000
0000
0000
0000
ENDCHAR
STARTCHAR char35
ENCODING 35
SWIDTH 500 0
DWIDTH 15 0
BBX 15 30 0 -8
BITMAP
0000
0000
0000
0660
0660
0660
0660
0660
0EE0
0CC0
7FF8
7FF8
0CC0
0CC0
7FF8
7FF8
0CC0
1DC0
1980
1980
1980
1980
1980
0000
0000
0000
0000
0000
0000
0000
ENDCHAR
STARTCHAR char36
ENCODING 36
SWIDTH 500 0
DWIDTH 15 0
BBX 15 30 0 -8
BITMAP
0000
0000
0300
0300
0300
0FC0
3FF0
7330
6338
6338
7310
3B00
1F80
07E0
0370
2338
7318
7318
3338
3FF0
0FC0
0300
0300
0300
0000
0000
0000
0000
0000
0000
ENDCHAR
STARTCHAR char37
ENCODING 37
SWIDTH 500 0
DWIDTH 15 0
BBX 15 30 0 -8
BITMAP
0000
0000
0000
0000
1818
3F38
77F0
6670
6E60
3CC0
19C0
0180
0300
0300
0600
0E60
0CF0
19D8
3998
31B8
60F0
6060
0000
0000
0000
0000
0000
0000
0000
0000
ENDCHAR
STARTCHAR char38
ENCODING 38
SWIDTH 500 0
DWIDTH 15 0
BBX 15 30 0 -8
BITMAP
0000
0000
0000
0000
0700
0F80
1D80
1980
1B00
0F00
0E00
1CF8
3EF8
3620
6660
6360
63C0
63C0
6198
71D8
3FF8
1E70
0000
0000
0000
0000
0000
0000
0000
0000
ENDCHAR
STARTCHAR char39
ENCODING 39
SWIDTH 500 0
DWIDTH 15 0
BBX 15 30 0 -8
BITMAP
0000
0000
0000
0300
0780
0780
0780
0780
0300
0300
0300
0300
0000
0000
0000
0000
0000
0000
0000
0000
0000
0000
0000
0000
0000
0000
0000
0000
0000
0000
ENDCHAR
STARTCHAR char40
ENCODING 40
SWIDTH 500 0
DWIDTH 15 0
BBX 15 30 0 -8
BITMAP
0000
0000
0000
0060
01E0
0380
0700
0600
0C00
0C00
0C00
1800
1800
1800
1800
1800
1800
0C00
0C00
0C00
0600
0700
0380
01E0
0060
0000
0000
0000
0000
0000
ENDCHAR
STARTCHAR char41
ENCODING 41
SWIDTH 500 0
DWIDTH 15 0
BBX 15 30 0 -8
BITMAP
0000
0000
0000
1800
1E00
0700
0380
0180
00C0
00C0
00C0
0060
0060
0060
0060
0060
0060
00C0
00C0
00C0
0180
0380
0700
1E00
1800
0000
0000
0000
0000
0000
ENDCHAR
STARTCHAR char42
ENCODING 42
SWIDTH 500 0
DWIDTH 15 0
BBX 15 30 0 -8
BITMAP
0000
0000
0000
0300
0300
1320
3B70
1FE0
0780
1FE0
3B70
1320
0300
0300
0000
0000
0000
0000
0000
0000
0000
0000
0000
0000
0000
0000
0000
0000
0000
0000
ENDCHAR
STARTCHAR char43
ENCODING 43
SWIDTH 500 0
DWIDTH 15 0
BBX 15 30 0 -8
BITMAP
0000
0000
0000
0000
0000
0000
0000
0000
0000
0300
0300
0300
0300
3FF0
3FF0
0300
0300
0300
0300
0000
0000
0000
0000
0000
0000
0000
0000
0000
0000
0000
ENDCHAR
STARTCHAR char44
ENCODING 44
SWIDTH 500 0
DWIDTH 15 0
BBX 15 30 0 -8
BITMAP
0000
0000
0000
0000
0000
0000
0000
0000
0000
0000
0000
0000
0000
0000
0000
0000
0000
0000
0300
0780
0780
0380
0180
0300
0300
0600
0C00
0000
0000
0000
ENDCHAR
STARTCHAR char45
ENCODING 45
SWIDTH 500 0
DWIDTH 15 0
BBX 15 30 0 -8
BITMAP
0000
0000
0000
0000
0000
0000
0000
0000
0000
0000
0000
0000
0000
3FF0
3FF0
0000
0000
0000
0000
0000
0000
0000
0000
0000
0000
0000
0000
0000
0000
0000
ENDCHAR
STARTCHAR char46
ENCODING 46
SWIDTH 500 0
DWIDTH 15 0
BBX 15 30 0 -8
BITMAP
0000
0000
0000
0000
0000
0000
0000
0000
0000
0000
0000
0000
0000
0000
0000
0000
0000
0000
0300
0780
0780
0300
0000
0000
0000
0000
0000
0000
0000
0000
ENDCHAR
STARTCHAR char47
ENCODING 47
SWIDTH 500 0
DWIDTH 15 0
BBX 15 30 0 -8
BITMAP
0000
0000
0000
0018
0018
0030
0030
0060
0060
00C0
00C0
0180
0180
0300
0300
0600
0600
0C00
0C00
1800
1800
3000
3000
6000
6000
0000
0000
0000
0000
0000
ENDCHAR
STARTCHAR char48
ENCODING 48
SWIDTH 500 0
DWIDTH 15 0
BBX 15 30 0 -8
BITMAP
0000
0000
0000
0000
0780
0FC0
1CE0
3870
3030
3030
6018
6018
6318
6318
6018
6018
3030
3030
3870
1CE0
0FC0
0780
0000
0000
0000
0000
0000
0000
0000
0000
ENDCHAR
STARTCHAR char49
ENCODING 49
SWIDTH 500 0
DWIDTH 15 0
BBX 15 30 0 -8
BITMAP
0000
0000
0000
0000
0300
0700
0F00
3F00
3B00
0300
0300
0300
0300
0300
0300
0300
0300
0300
0300
0300
3FF0
3FF0
0000
0000
0000
0000
0000
0000
0000
0000
ENDCHAR
STARTCHAR char50
ENCODING 50
SWIDTH 500 0
DWIDTH 15 0
BBX 15 30 0 -8
BITMAP
0000
0000
0000
0000
0780
1FE0
3870
3030
6018
6018
7038
3030
0070
01E0
03C0
0F00
1E00
3818
3018
7018
7FF8
7FF8
0000
0000
0000
0000
0000
0000
0000
0000
ENDCHAR
STARTCHAR char51
ENCODING 51
SWIDTH 500 0
DWIDTH 15 0
BBX 15 30 0 -8
BITMAP
0000
0000
0000
0000
0780
1FE0
1860
3830
3830
1030
0060
03C0
03E0
0070
0030
0018
2018
7018
7030
3070
3FE0
0F80
0000
0000
0000
0000
0000
0000
0000
0000
ENDCHAR
STARTCHAR char52
ENCODING 52
SWIDTH 500 0
DWIDTH 15 0
BBX 15 30 0 -8
BITMAP
0000
0000
0000
0000
0060
00E0
01E0
01E0
0360
0760
0660
0C60
1C60
1860
3860
7FF8
7FF8
0060
0060
0060
01F8
01F8
0000
0000
0000
0000
0000
0000
0000
0000
ENDCHAR
STARTCHAR char53
ENCODING 53
SWIDTH 500 0
DWIDTH 15 0
BBX 15 30 0 -8
BITMAP
0000
0000
0000
0000
3FF0
3FF0
3030
3030
3000
3000
3780
3FE0
3870
0030
0018
0018
2018
7018
7030
3070
3FE0
0F80
0000
0000
0000
0000
0000
0000
0000
0000
ENDCHAR
STARTCHAR char54
ENCODING 54
SWIDTH 500 0
DWIDTH 15 0
BBX 15 30 0 -8
BITMAP
0000
0000
0000
0000
0380
0FE0
1C60
3870
3070
3020
6000
6780
7FE0
7870
7030
6018
6018
6018
3030
3870
1FE0
0780
0000
0000
0000
0000
0000
0000
0000
0000
ENDCHAR
STARTCHAR char55
ENCODING 55
SWIDTH 500 0
DWIDTH 15 0
BBX 15 30 0 -8
BITMAP
0000
0000
0000
0000
7FF8
7FF8
6038
6030
6060
60E0
00C0
0180
0180
0300
0300
0600
0600
0600
0C00
0C00
0C00
0C00
0000
0000
0000
0000
0000
0000
0000
0000
ENDCHAR
STARTCHAR char56
ENCODING 56
SWIDTH 500 0
DWIDTH 15 0
BBX 15 30 0 -8
BITMAP
0000
0000
0000
0000
0780
1FE0
1860
3030
3030
3030
1860
0FC0
0FC0
3870
3030
6018
6018
6018
3030
3870
1FE0
0780
0000
0000
0000
0000
0000
0000
0000
0000
ENDCHAR
STARTCHAR char57
ENCODING 57
SWIDTH 500 0
DWIDTH 15 0
BBX 15 30 0 -8
BITMAP
0000
0000
0000
0000
0780
1FE0
3870
3030
6018
6018
6018
3038
3878
1FF8
0798
0018
1030
3830
3870
18E0
1FC0
0700
0000
0000
0000
0000
0000
0000
0000
0000
ENDCHAR
STARTCHAR char58
ENCODING 58
SWIDTH 500 0
DWIDTH 15 0
BBX 15 30 0 -8
BITMAP
0000
0000
0000
0000
0000
0000
0000
0000
0000
0300
0780
0780
0300
0000
0000
0000
0000
0000
0300
0780
0780
0300
0000
0000
0000
0000
0000
0000
0000
0000
ENDCHAR
STARTCHAR char59
ENCODING 59
SWIDTH 500 0
DWIDTH 15 0
BBX 15 30 0 -8
BITMAP
0000
0000
0000
0000
0000
0000
0000
0000
0000
0300
0780
0780
0300
0000
0000
0000
0000
0000
0300
0780
0780
0380
0180
0300
0300
0600
0C00
0000
0000
0000
ENDCHAR
STARTCHAR char60
ENCODING 60
SWIDTH 500 0
DWIDTH 15 0
BBX 15 30 0 -8
BITMAP
0000
0000
0000
0000
0000
0000
0000
0000
0030
00F0
01C0
0780
0E00
3800
3C00
0E00
0780
01C0
00F0
0030
0000
0000
0000
0000
0000
0000
0000
0000
0000
0000
ENDCHAR
STARTCHAR char61
ENCODING 61
SWIDTH 500 0
DWIDTH 15 0
BBX 15 30 0 -8
BITMAP
0000
0000
0000
0000
0000
0000
0000
0000
0000
0000
3FF0
3FF0
0000
0000
0000
0000
3FF0
3FF0
0000
0000
0000
0000
0000
0000
0000
0000
0000
0000
0000
0000
ENDCHAR
STARTCHAR char62
ENCODING 62
SWIDTH 500 0
DWIDTH 15 0
BBX 15 30 0 -8
BITMAP
0000
0000
0000
0000
0000
0000
0000
0000
3000
3C00
0E00
0780
01C0
00F0
0070
01C0
0780
0E00
3C00
3000
0000
0000
0000
0000
0000
0000
0000
0000
0000
0000
ENDCHAR
STARTCHAR char63
ENCODING 63
SWIDTH 500 0
DWIDTH 15 0
BBX 15 30 0 -8
BITMAP
0000
0000
0000
0000
0FC0
3FF0
3870
7018
7018
7018
2030
00F0
01C0
0380
0300
0300
0000
0000
0300
0780
0780
0300
0000
0000
0000
0000
0000
0000
0000
0000
ENDCHAR
STARTCHAR char64
ENCODING 64
SWIDTH 500 0
DWIDTH 15 0
BBX 15 30 0 -8
BITMAP
0000
0000
0000
0000
0780
1FE0
3870
3030
3018
61D8
63F8
6738
6618
6618
6618
6338
63F0
30E0
3000
3800
1FC0
07C0
0000
0000
0000
0000
0000
0000
0000
0000
ENDCHAR
STARTCHAR char65
ENCODING 65
SWIDTH 500 0
DWIDTH 15 0
BBX 15 30 0 -8
BITMAP
0000
0000
0000
0000
0300
0300
0780
0780
0780
0CC0
0CC0
0CC0
0CC0
1860
1860
1FE0
1FE0
3030
3030
3030
FCFC
FCFC
0000
0000
0000
0000
0000
0000
0000
0000
ENDCHAR
STARTCHAR char66
ENCODING 66
SWIDTH 500 0
DWIDTH 15 0
BBX 15 30 0 -8
BITMAP
0000
0000
0000
0000
FF80
FFE0
3060
3030
3030
3070
30E0
3FC0
3FE0
3070
3030
3018
3018
3018
3030
30F0
FFE0
FF80
0000
0000
0000
0000
0000
0000
0000
0000
ENDCHAR
STARTCHAR char67
ENCODING 67
SWIDTH 500 0
DWIDTH 15 0
BBX 15 30 0 -8
BITMAP
0000
0000
0000
0000
0798
1FD8
3C78
3038
7018
6018
6018
6000
6000
6000
6000
6018
6018
7018
3030
3CF0
1FE0
0780
0000
0000
0000
0000
0000
0000
0000
0000
ENDCHAR
STARTCHAR char68
ENCODING 68
SWIDTH 500 0
DWIDTH 15 0
BBX 15 30 0 -8
BITMAP
0000
0000
0000
0000
FF00
FFC0
31E0
3070
3030
3038
3018
3018
3018
3018
3018
3018
3038
3030
3070
31E0
FFC0
FF00
0000
0000
0000
0000
0000
0000
0000
0000
ENDCHAR
STARTCHAR char69
ENCODING 69
SWIDTH 500 0
DWIDTH 15 0
BBX 15 30 0 -8
BITMAP
0000
0000
0000
0000
FFF8
FFF8
3018
3018
3018
3198
3198
3180
3F80
3F80
3180
3198
3198
3018
3018
3018
FFF8
FFF8
0000
0000
0000
0000
0000
0000
0000
0000
ENDCHAR
STARTCHAR char70
ENCODING 70
SWIDTH 500 0
DWIDTH 15 0
BBX 15 30 0 -8
BITMAP
0000
0000
0000
0000
FFF8
FFF8
3018
3018
3018
3198
3198
3180
3F80
3F80
3180
3180
3180
3000
3000
3000
FE00
FE00
0000
0000
0000
0000
0000
0000
0000
0000
ENDCHAR
STARTCHAR char71
ENCODING 71
SWIDTH 500 0
DWIDTH 15 0
BBX 15 30 0 -8
BITMAP
0000
0000
0000
0000
0798
1FD8
1C78
3038
3018
7018
6018
6000
6000
60FE
60FE
6018
7018
3018
3038
1C78
1FD8
0798
0000
0000
0000
0000
0000
0000
0000
0000
ENDCHAR
STARTCHAR char72
ENCODING 72
SWIDTH 500 0
DWIDTH 15 0
BBX 15 30 0 -8
BITMAP
0000
0000
0000
0000
FCFC
FCFC
3030
3030
3030
3030
3030
3030
3FF0
3FF0
3030
3030
3030
3030
3030
3030
FCFC
FCFC
0000
0000
0000
0000
0000
0000
0000
0000
ENDCHAR
STARTCHAR char73
ENCODING 73
SWIDTH 500 0
DWIDTH 15 0
BBX 15 30 0 -8
BITMAP
0000
0000
0000
0000
3FF0
3FF0
0300
0300
0300
0300
0300
0300
0300
0300
0300
0300
0300
0300
0300
0300
3FF0
3FF0
0000
0000
0000
0000
0000
0000
0000
0000
ENDCHAR
STARTCHAR char74
ENCODING 74
SWIDTH 500 0
DWIDTH 15 0
BBX 15 30 0 -8
BITMAP
0000
0000
0000
0000
07F8
07F8
0060
0060
0060
0060
0060
0060
0060
0060
0060
3060
7060
6060
60E0
71C0
3FC0
1F00
0000
0000
0000
0000
0000
0000
0000
0000
ENDCHAR
STARTCHAR char75
ENCODING 75
SWIDTH 500 0
DWIDTH 15 0
BBX 15 30 0 -8
BITMAP
0000
0000
0000
0000
FCFC
FCFC
3070
3060
30C0
31C0
3180
3300
3700
3F00
3F80
3980
30C0
30E0
3060
3030
FCFC
FCFC
0000
0000
0000
0000
0000
0000
0000
0000
ENDCHAR
STARTCHAR char76
ENCODING 76
SWIDTH 500 0
DWIDTH 15 0
BBX 15 30 0 -8
BITMAP
0000
0000
0000
0000
FE00
FE00
3000
3000
3000
3000
3000
3000
3000
3000
3000
3018
3018
3018
3018
3018
FFF8
FFF8
0000
0000
0000
0000
0000
0000
0000
0000
ENDCHAR
STARTCHAR char77
ENCODING 77
SWIDTH 500 0
DWIDTH 15 0
BBX 15 30 0 -8
BITMAP
0000
0000
0000
0000
F03C
F87C
3870
3870
3CF0
3CF0
3CF0
34B0
37B0
37B0
37B0
3330
3330
3330
3330
3030
FCFC
FCFC
0000
0000
0000
0000
0000
0000
0000
0000
ENDCHAR
STARTCHAR char78
ENCODING 78
SWIDTH 500 0
DWIDTH 15 0
BBX 15 30 0 -8
BITMAP
0000
0000
0000
0000
F0FC
F8FC
3830
3C30
3C30
3630
3630
3330
3330
3330
31B0
31B0
30F0
30F0
30F0
3070
FC70
FC30
0000
0000
0000
0000
0000
0000
0000
0000
ENDCHAR
STARTCHAR char79
ENCODING 79
SWIDTH 500 0
DWIDTH 15 0
BBX 15 30 0 -8
BITMAP
0000
0000
0000
0000
0FC0
3FF0
3870
7038
6018
6018
6018
6018
6018
6018
6018
6018
6018
6018
7038
3870
3FF0
0FC0
0000
0000
0000
0000
0000
0000
0000
0000
ENDCHAR
STARTCHAR char80
ENCODING 80
SWIDTH 500 0
DWIDTH 15 0
BBX 15 30 0 -8
BITMAP
0000
0000
0000
0000
FFC0
FFF0
3070
3038
3018
3018
3038
3070
3FF0
3FC0
3000
3000
3000
3000
3000
3000
FE00
FE00
0000
0000
0000
0000
0000
0000
0000
0000
ENDCHAR
STARTCHAR char81
ENCODING 81
SWIDTH 500 0
DWIDTH 15 0
BBX 15 30 0 -8
BITMAP
0000
0000
0000
0000
0FC0
3FF0
3870
7038
6018
6018
6018
6018
6018
6018
6018
6718
6F98
6D98
78B8
38F0
3FF0
0FC0
00CC
006C
007C
0038
0000
0000
0000
0000
ENDCHAR
STARTCHAR char82
ENCODING 82
SWIDTH 500 0
DWIDTH 15 0
BBX 15 30 0 -8
BITMAP
0000
0000
0000
0000
FFC0
FFF0
3070
3038
3018
3018
3038
3070
3FF0
3FC0
30C0
3060
3060
3070
3030
3030
FC3C
FC3C
0000
0000
0000
0000
0000
0000
0000
0000
ENDCHAR
STARTCHAR char83
ENCODING 83
SWIDTH 500 0
DWIDTH 15 0
BBX 15 30 0 -8
BITMAP
0000
0000
0000
0000
0F30
3FB0
38F0
7070
6030
6030
3030
3C00
1F80
03E0
0070
6038
6018
6018
7038
7870
6FF0
67C0
0000
0000
0000
0000
0000
0000
0000
0000
ENDCHAR
STARTCHAR char84
ENCODING 84
SWIDTH 500 0
DWIDTH 15 0
BBX 15 30 0 -8
BITMAP
0000
0000
0000
0000
7FF8
7FF8
6318
6318
6318
6318
6318
0300
0300
0300
0300
0300
0300
0300
0300
0300
1FE0
1FE0
0000
0000
0000
0000
0000
0000
0000
0000
ENDCHAR
STARTCHAR char85
ENCODING 85
SWIDTH 500 0
DWIDTH 15 0
BBX 15 30 0 -8
BITMAP
0000
0000
0000
0000
FCFC
FCFC
3030
3030
3030
3030
3030
3030
3030
3030
3030
3030
3030
3030
3870
1CE0
1FE0
0780
0000
0000
0000
0000
0000
0000
0000
0000
ENDCHAR
STARTCHAR char86
ENCODING 86
SWIDTH 500 0
DWIDTH 15 0
BBX 15 30 0 -8
BITMAP
0000
0000
0000
0000
FCFC
FCFC
3030
3030
3030
1860
1860
1860
1860
0CC0
0CC0
0CC0
0CC0
0780
0780
0780
0300
0300
0000
0000
0000
0000
0000
0000
0000
0000
ENDCHAR
STARTCHAR char87
ENCODING 87
SWIDTH 500 0
DWIDTH 15 0
BBX 15 30 0 -8
BITMAP
0000
0000
0000
0000
F87C
F87C
6018
6318
6318
6318
6318
37B0
37B0
37B0
37B0
3CF0
3CF0
1CE0
1CE0
1860
1860
1860
0000
0000
0000
0000
0000
0000
0000
0000
ENDCHAR
STARTCHAR char88
ENCODING 88
SWIDTH 500 0
DWIDTH 15 0
BBX 15 30 0 -8
BITMAP
0000
0000
0000
0000
FCFC
FCFC
3830
1860
1CE0
0CC0
0DC0
0780
0700
0380
0780
0EC0
0CC0
1CE0
1860
3070
FCFC
FCFC
0000
0000
0000
0000
0000
0000
0000
0000
ENDCHAR
STARTCHAR char89
ENCODING 89
SWIDTH 500 0
DWIDTH 15 0
BBX 15 30 0 -8
BITMAP
0000
0000
0000
0000
FCFC
FCFC
3030
1860
1860
0CC0
0CC0
0780
0780
0300
0300
0300
0300
0300
0300
0300
1FE0
1FE0
0000
0000
0000
0000
0000
0000
0000
0000
ENDCHAR
STARTCHAR char90
ENCODING 90
SWIDTH 500 0
DWIDTH 15 0
BBX 15 30 0 -8
BITMAP
0000
0000
0000
0000
7FF8
7FF8
6030
6070
6060
60C0
61C0
0180
0380
0700
0600
0E18
0C18
1818
3818
3018
7FF8
7FF8
0000
0000
0000
0000
0000
0000
0000
0000
ENDCHAR
STARTCHAR char91
ENCODING 91
SWIDTH 500 0
DWIDTH 15 0
BBX 15 30 0 -8
BITMAP
0000
0000
0000
1FE0
1FE0
1800
1800
1800
1800
1800
1800
1800
1800
1800
1800
1800
1800
1800
1800
1800
1800
1800
1800
1FE0
1FE0
0000
0000
0000
0000
0000
ENDCHAR
STARTCHAR char92
ENCODING 92
SWIDTH 500 0
DWIDTH 15 0
BBX 15 30 0 -8
BITMAP
0000
0000
0000
6000
6000
3000
3000
1800
1800
0C00
0C00
0600
0600
0300
0300
0180
0180
00C0
00C0
0060
0060
0030
0030
0018
0018
0000
0000
0000
0000
0000
ENDCHAR
STARTCHAR char93
ENCODING 93
SWIDTH 500 0
DWIDTH 15 0
BBX 15 30 0 -8
BITMAP
0000
0000
0000
1FE0
1FE0
0060
0060
0060
0060
0060
0060
0060
0060
0060
0060
0060
0060
0060
0060
0060
0060
0060
0060
1FE0
1FE0
0000
0000
0000
0000
0000
ENDCHAR
STARTCHAR char94
ENCODING 94
SWIDTH 500 0
DWIDTH 15 0
BBX 15 30 0 -8
BITMAP
0000
0000
0000
0300
0FC0
1CE0
7878
6018
0000
0000
0000
0000
0000
0000
0000
0000
0000
0000
0000
0000
0000
0000
0000
0000
0000
0000
0000
0000
0000
0000
ENDCHAR
STARTCHAR char95
ENCODING 95
SWIDTH 500 0
DWIDTH 15 0
BBX 15 30 0 -8
BITMAP
0000
0000
0000
0000
0000
0000
0000
0000
0000
0000
0000
0000
0000
0000
0000
0000
0000
0000
0000
0000
3FF0
3FF0
0000
0000
0000
0000
0000
0000
0000
0000
ENDCHAR
STARTCHAR char96
ENCODING 96
SWIDTH 500 0
DWIDTH 15 0
BBX 15 30 0 -8
BITMAP
0000
0000
1800
1E00
0F00
03C0
01E0
0060
0000
0000
0000
0000
0000
0000
0000
0000
0000
0000
0000
0000
0000
0000
0000
0000
0000
0000
0000
0000
0000
0000
ENDCHAR
STARTCHAR char97
ENCODING 97
SWIDTH 500 0
DWIDTH 15 0
BBX 15 30 0 -8
BITMAP
0000
0000
0000
0000
0000
0000
0000
0000
0000
0780
1FE0
3860
3830
1070
07F0
3FB0
3830
7030
6070
71F0
3FBC
1E1C
0000
0000
0000
0000
0000
0000
0000
0000
ENDCHAR
STARTCHAR char98
ENCODING 98
SWIDTH 500 0
DWIDTH 15 0
BBX 15 30 0 -8
BITMAP
0000
0000
0000
F000
F000
3000
3000
3000
3000
33C0
37E0
3C70
3830
3018
3018
3018
3018
3018
3830
3C70
37E0
33C0
0000
0000
0000
0000
0000
0000
0000
0000
ENDCHAR
STARTCHAR char99
ENCODING 99
SWIDTH 500 0
DWIDTH 15 0
BBX 15 30 0 -8
BITMAP
0000
0000
0000
0000
0000
0000
0000
0000
0000
0798
1FD8
3878
3038
6018
6018
6000
6000
6000
3018
3838
1FF0
07C0
0000
0000
0000
0000
0000
0000
0000
0000
ENDCHAR
STARTCHAR char100
ENCODING 100
SWIDTH 500 0
DWIDTH 15 0
BBX 15 30 0 -8
BITMAP
0000
0000
0000
01F0
01F0
0030
0030
0030
0030
0F30
1FB0
38F0
3070
6030
6030
6030
6030
6030
3070
38F0
1FBC
0F3C
0000
0000
0000
0000
0000
0000
0000
0000
ENDCHAR
STARTCHAR char101
ENCODING 101
SWIDTH 500 0
DWIDTH 15 0
BBX 15 30 0 -8
BITMAP
0000
0000
0000
0000
0000
0000
0000
0000
0000
07C0
1FF0
3830
3018
6018
7FF8
7FF8
6000
6000
3018
3838
1FF0
07C0
0000
0000
0000
0000
0000
0000
0000
0000
ENDCHAR
STARTCHAR char102
ENCODING 102
SWIDTH 500 0
DWIDTH 15 0
BBX 15 30 0 -8
BITMAP
0000
0000
0000
03E0
07F0
0E38
0C38
0C10
0C00
7FC0
7FC0
0C00
0C00
0C00
0C00
0C00
0C00
0C00
0C00
0C00
7FC0
7FC0
0000
0000
0000
0000
0000
0000
0000
0000
ENDCHAR
STARTCHAR char103
ENCODING 103
SWIDTH 500 0
DWIDTH 15 0
BBX 15 30 0 -8
BITMAP
0000
0000
0000
0000
0000
0000
0000
0000
0000
1F18
3FBC
70FC
606C
6060
6060
70E0
3FC0
1F80
3000
3800
1FC0
3FF0
7038
6018
7038
3FF0
0FC0
0000
0000
0000
ENDCHAR
STARTCHAR char104
ENCODING 104
SWIDTH 500 0
DWIDTH 15 0
BBX 15 30 0 -8
BITMAP
0000
0000
0000
F000
F000
3000
3000
3000
3000
33C0
37E0
3C70
3830
3030
3030
3030
3030
3030
3030
3030
FCFC
FCFC
0000
0000
0000
0000
0000
0000
0000
0000
ENDCHAR
STARTCHAR char105
ENCODING 105
SWIDTH 500 0
DWIDTH 15 0
BBX 15 30 0 -8
BITMAP
0000
0000
0000
0300
0780
0780
0300
0000
0000
3F00
3F00
0300
0300
0300
0300
0300
0300
0300
0300
0300
3FF0
3FF0
0000
0000
0000
0000
0000
0000
0000
0000
ENDCHAR
STARTCHAR char106
ENCODING 106
SWIDTH 500 0
DWIDTH 15 0
BBX 15 30 0 -8
BITMAP
0000
0000
0000
0180
03C0
03C0
0180
0000
0000
0FC0
0FC0
00C0
00C0
00C0
00C0
00C0
00C0
00C0
00C0
00C0
00C0
30C0
70C0
60C0
7380
3F80
1E00
0000
0000
0000
ENDCHAR
STARTCHAR char107
ENCODING 107
SWIDTH 500 0
DWIDTH 15 0
BBX 15 30 0 -8
BITMAP
0000
0000
0000
F000
F000
3000
3000
3000
3000
31F8
31F8
30E0
31C0
3380
3700
3F80
3DC0
38C0
3060
3070
FCFC
FCFC
0000
0000
0000
0000
0000
0000
0000
0000
ENDCHAR
STARTCHAR char108
ENCODING 108
SWIDTH 500 0
DWIDTH 15 0
BBX 15 30 0 -8
BITMAP
0000
0000
0000
3F00
3F00
0300
0300
0300
0300
0300
0300
0300
0300
0300
0300
0300
0300
0300
0300
0300
3FF0
3FF0
0000
0000
0000
0000
0000
0000
0000
0000
ENDCHAR
STARTCHAR char109
ENCODING 109
SWIDTH 500 0
DWIDTH 15 0
BBX 15 30 0 -8
BITMAP
0000
0000
0000
0000
0000
0000
0000
0000
0000
EE70
FFF8
7398
6318
6318
6318
6318
6318
6318
6318
6318
F7BC
F7BC
0000
0000
0000
0000
0000
0000
0000
0000
ENDCHAR
STARTCHAR char110
ENCODING 110
SWIDTH 500 0
DWIDTH 15 0
BBX 15 30 0 -8
BITMAP
0000
0000
0000
0000
0000
0000
0000
0000
0000
F3C0
F7E0
3C70
3830
3030
3030
3030
3030
3030
3030
3030
FCFC
FCFC
0000
0000
0000
0000
0000
0000
0000
0000
ENDCHAR
STARTCHAR char111
ENCODING 111
SWIDTH 500 0
DWIDTH 15 0
BBX 15 30 0 -8
BITMAP
0000
0000
0000
0000
0000
0000
0000
0000
0000
0780
1FE0
3870
3030
6018
6018
6018
6018
6018
3030
3870
1FE0
0780
0000
0000
0000
0000
0000
0000
0000
0000
ENDCHAR
STARTCHAR char112
ENCODING 112
SWIDTH 500 0
DWIDTH 15 0
BBX 15 30 0 -8
BITMAP
0000
0000
0000
0000
0000
0000
0000
0000
0000
F3C0
F7E0
3C70
3830
3018
3018
3018
3018
3018
3830
3C70
37E0
33C0
3000
3000
3000
FC00
FC00
0000
0000
0000
ENDCHAR
STARTCHAR char113
ENCODING 113
SWIDTH 500 0
DWIDTH 15 0
BBX 15 30 0 -8
BITMAP
0000
0000
0000
0000
0000
0000
0000
0000
0000
0F30
1FB0
38F0
3070
6030
6030
6030
6030
6030
3070
38F0
1FB0
0F30
0030
0030
0030
0030
00FC
00FC
0000
0000
ENDCHAR
STARTCHAR char114
ENCODING 114
SWIDTH 500 0
DWIDTH 15 0
BBX 15 30 0 -8
BITMAP
0000
0000
0000
0000
0000
0000
0000
0000
0000
F9E0
FBF0
1E38
1C18
1838
1830
1800
1800
1800
1800
1800
FFC0
FFC0
0000
0000
0000
0000
0000
0000
0000
0000
ENDCHAR
STARTCHAR char115
ENCODING 115
SWIDTH 500 0
DWIDTH 15 0
BBX 15 30 0 -8
BITMAP
0000
0000
0000
0000
0000
0000
0000
0000
0000
0FB0
3FF0
7070
6030
7030
3F00
1FE0
00F0
6038
6018
7038
7FF0
6FC0
0000
0000
0000
0000
0000
0000
0000
0000
ENDCHAR
STARTCHAR char116
ENCODING 116
SWIDTH 500 0
DWIDTH 15 0
BBX 15 30 0 -8
BITMAP
0000
0000
0000
0000
0000
0C00
0C00
0C00
0C00
7FC0
7FC0
0C00
0C00
0C00
0C00
0C00
0C18
0C18
0C18
0E38
07F0
03E0
0000
0000
0000
0000
0000
0000
0000
0000
ENDCHAR
STARTCHAR char117
ENCODING 117
SWIDTH 500 0
DWIDTH 15 0
BBX 15 30 0 -8
BITMAP
0000
0000
0000
0000
0000
0000
0000
0000
0000
F0F0
F0F0
3030
3030
3030
3030
3030
3030
3030
3070
38F0
1FBC
0F3C
0000
0000
0000
0000
0000
0000
0000
0000
ENDCHAR
STARTCHAR char118
ENCODING 118
SWIDTH 500 0
DWIDTH 15 0
BBX 15 30 0 -8
BITMAP
0000
0000
0000
0000
0000
0000
0000
0000
0000
FCFC
FCFC
3030
3030
1860
1860
1860
0CC0
0CC0
0EC0
0780
0780
0300
0000
0000
0000
0000
0000
0000
0000
0000
ENDCHAR
STARTCHAR char119
ENCODING 119
SWIDTH 500 0
DWIDTH 15 0
BBX 15 30 0 -8
BITMAP
0000
0000
0000
0000
0000
0000
0000
0000
0000
F87C
F87C
6018
6318
6318
7338
37B0
37B0
37B0
3CE0
1CE0
1860
1860
0000
0000
0000
0000
0000
0000
0000
0000
ENDCHAR
STARTCHAR char120
ENCODING 120
SWIDTH 500 0
DWIDTH 15 0
BBX 15 30 0 -8
BITMAP
0000
0000
0000
0000
0000
0000
0000
0000
0000
FCFC
FCFC
3870
1CE0
0EC0
0780
0300
0780
0DC0
1CE0
3870
FCFC
FCFC
0000
0000
0000
0000
0000
0000
0000
0000
ENDCHAR
STARTCHAR char121
ENCODING 121
SWIDTH 500 0
DWIDTH 15 0
BBX 15 30 0 -8
BITMAP
0000
0000
0000
0000
0000
0000
0000
0000
0000
FCFC
FCFC
3830
1830
1860
0C60
0C60
06C0
06C0
03C0
0380
0180
2180
7300
6300
7700
3E00
1C00
0000
0000
0000
ENDCHAR
STARTCHAR char122
ENCODING 122
SWIDTH 500 0
DWIDTH 15 0
BBX 15 30 0 -8
BITMAP
0000
0000
0000
0000
0000
0000
0000
0000
0000
3FF8
3FF8
3070
30E0
30C0
0180
0380
0300
0618
0E18
1C18
3FF8
3FF8
0000
0000
0000
0000
0000
0000
0000
0000
ENDCHAR
STARTCHAR char123
ENCODING 123
SWIDTH 500 0
DWIDTH 15 0
BBX 15 30 0 -8
BITMAP
0000
0000
0000
0078
01F8
0180
0300
0300
0300
0300
0300
0300
0600
3C00
3C00
0600
0300
0300
0300
0300
0300
0300
0180
01F8
0078
0000
0000
0000
0000
0000
ENDCHAR
STARTCHAR char124
ENCODING 124
SWIDTH 500 0
DWIDTH 15 0
BBX 15 30 0 -8
BITMAP
0000
0000
0000
0300
0300
0300
0300
0300
0300
0300
0300
0300
0300
0300
0300
0300
0300
0300
0300
0300
0300
0300
0300
0300
0300
0000
0000
0000
0000
0000
ENDCHAR
STARTCHAR char125
ENCODING 125
SWIDTH 500 0
DWIDTH 15 0
BBX 15 30 0 -8
BITMAP
0000
0000
0000
7800
7E00
0600
0300
0300
0300
0300
0300
0300
0180
00F0
00F0
0180
0300
0300
0300
0300
0300
0300
0600
7E00
7800
0000
0000
0000
0000
0000
ENDCHAR
STARTCHAR char126
ENCODING 126
SWIDTH 500 0
DWIDTH 15 0
BBX 15 30 0 -8
BITMAP
0000
0000
0000
0000
0000
0000
0000
0000
0000
0000
0000
1C18
3E18
7718
63B8
61F0
60E0
0000
0000
0000
0000
0000
0000
0000
0000
0000
0000
0000
0000
0000
ENDCHAR
STARTCHAR char127
ENCODING 127
SWIDTH 500 0
DWIDTH 15 0
BBX 15 30 0 -8
BITMAP
0000
0000
0000
0000
0000
0000
0000
0000
0000
0000
0000
0000
0000
0000
0000
0000
0000
0000
0000
0000
0000
0000
0000
0000
0000
0000
0000
0000
0000
0000
ENDCHAR
STARTCHAR char128
ENCODING 128
SWIDTH 500 0
DWIDTH 15 0
BBX 15 30 0 -8
BITMAP
0000
0000
0000
0000
0000
0000
0000
0000
0000
0000
0000
0000
0000
0000
0000
0000
0000
0000
0000
0000
0000
0000
0000
0000
0000
0000
0000
0000
0000
0000
ENDCHAR
STARTCHAR char129
ENCODING 129
SWIDTH 500 0
DWIDTH 15 0
BBX 15 30 0 -8
BITMAP
0000
0000
0000
0000
0000
0000
0000
0000
0000
0000
0000
0000
0000
0000
0000
0000
0000
0000
0000
0000
0000
0000
0000
0000
0000
0000
0000
0000
0000
0000
ENDCHAR
STARTCHAR char130
ENCODING 130
SWIDTH 500 0
DWIDTH 15 0
BBX 15 30 0 -8
BITMAP
0000
0000
0000
0000
0000
0000
0000
0000
0000
0000
0000
0000
0000
0000
0000
0000
0000
0000
0000
0000
0000
0000
0000
0000
0000
0000
0000
0000
0000
0000
ENDCHAR
STARTCHAR char131
ENCODING 131
SWIDTH 500 0
DWIDTH 15 0
BBX 15 30 0 -8
BITMAP
0000
0000
0000
0000
0000
0000
0000
0000
0000
0000
0000
0000
0000
0000
0000
0000
0000
0000
0000
0000
0000
0000
0000
0000
0000
0000
0000
0000
0000
0000
ENDCHAR
STARTCHAR char132
ENCODING 132
SWIDTH 500 0
DWIDTH 15 0
BBX 15 30 0 -8
BITMAP
0000
0000
0000
0000
0000
0000
0000
0000
0000
0000
0000
0000
0000
0000
0000
0000
0000
0000
0000
0000
0000
0000
0000
0000
0000
0000
0000
0000
0000
0000
ENDCHAR
STARTCHAR char133
ENCODING 133
SWIDTH 500 0
DWIDTH 15 0
BBX 15 30 0 -8
BITMAP
0000
0000
0000
0000
0000
0000
0000
0000
0000
0000
0000
0000
0000
0000
0000
0000
0000
0000
0000
0000
0000
0000
0000
0000
0000
0000
0000
0000
0000
0000
ENDCHAR
STARTCHAR char134
ENCODING 134
SWIDTH 500 0
DWIDTH 15 0
BBX 15 30 0 -8
BITMAP
0000
0000
0000
0000
0000
0000
0000
0000
0000
0000
0000
0000
0000
0000
0000
0000
0000
0000
0000
0000
0000
0000
0000
0000
0000
0000
0000
0000
0000
0000
ENDCHAR
STARTCHAR char135
ENCODING 135
SWIDTH 500 0
DWIDTH 15 0
BBX 15 30 0 -8
BITMAP
0000
0000
0000
0000
0000
0000
0000
0000
0000
0000
0000
0000
0000
0000
0000
0000
0000
0000
0000
0000
0000
0000
0000
0000
0000
0000
0000
0000
0000
0000
ENDCHAR
STARTCHAR char136
ENCODING 136
SWIDTH 500 0
DWIDTH 15 0
BBX 15 30 0 -8
BITMAP
0000
0000
0000
0000
0000
0000
0000
0000
0000
0000
0000
0000
0000
0000
0000
0000
0000
0000
0000
0000
0000
0000
0000
0000
0000
0000
0000
0000
0000
0000
ENDCHAR
STARTCHAR char137
ENCODING 137
SWIDTH 500 0
DWIDTH 15 0
BBX 15 30 0 -8
BITMAP
0000
0000
0000
0000
0000
0000
0000
0000
0000
0000
0000
0000
0000
0000
0000
0000
0000
0000
0000
0000
0000
0000
0000
0000
0000
0000
0000
0000
0000
0000
ENDCHAR
STARTCHAR char138
ENCODING 138
SWIDTH 500 0
DWIDTH 15 0
BBX 15 30 0 -8
BITMAP
0000
0000
0000
0000
0000
0000
0000
0000
0000
0000
0000
0000
0000
0000
0000
0000
0000
0000
0000
0000
0000
0000
0000
0000
0000
0000
0000
0000
0000
0000
ENDCHAR
STARTCHAR char139
ENCODING 139
SWIDTH 500 0
DWIDTH 15 0
BBX 15 30 0 -8
BITMAP
0000
0000
0000
0000
0000
0000
0000
0000
0000
0000
0000
0000
0000
0000
0000
0000
0000
0000
0000
0000
0000
0000
0000
0000
0000
0000
0000
0000
0000
0000
ENDCHAR
STARTCHAR char140
ENCODING 140
SWIDTH 500 0
DWIDTH 15 0
BBX 15 30 0 -8
BITMAP
0000
0000
0000
0000
0000
0000
0000
0000
0000
0000
0000
0000
0000
0000
0000
0000
0000
0000
0000
0000
0000
0000
0000
0000
0000
0000
0000
0000
0000
0000
ENDCHAR
STARTCHAR char141
ENCODING 141
SWIDTH 500 0
DWIDTH 15 0
BBX 15 30 0 -8
BITMAP
0000
0000
0000
0000
0000
0000
0000
0000
0000
0000
0000
0000
0000
0000
0000
0000
0000
0000
0000
0000
0000
0000
0000
0000
0000
0000
0000
0000
0000
0000
ENDCHAR
STARTCHAR char142
ENCODING 142
SWIDTH 500 0
DWIDTH 15 0
BBX 15 30 0 -8
BITMAP
0000
0000
0000
0000
0000
0000
0000
0000
0000
0000
0000
0000
0000
0000
0000
0000
0000
0000
0000
0000
0000
0000
0000
0000
0000
0000
0000
0000
0000
0000
ENDCHAR
STARTCHAR char143
ENCODING 143
SWIDTH 500 0
DWIDTH 15 0
BBX 15 30 0 -8
BITMAP
0000
0000
0000
0000
0000
0000
0000
0000
0000
0000
0000
0000
0000
0000
0000
0000
0000
0000
0000
0000
0000
0000
0000
0000
0000
0000
0000
0000
0000
0000
ENDCHAR
STARTCHAR char144
ENCODING 144
SWIDTH 500 0
DWIDTH 15 0
BBX 15 30 0 -8
BITMAP
0000
0000
0000
0000
0000
0000
0000
0000
0000
0000
0000
0000
0000
0000
0000
0000
0000
0000
0000
0000
0000
0000
0000
0000
0000
0000
0000
0000
0000
0000
ENDCHAR
STARTCHAR char145
ENCODING 145
SWIDTH 500 0
DWIDTH 15 0
BBX 15 30 0 -8
BITMAP
0000
0000
0000
0000
0000
0000
0000
0000
0000
0000
0000
0000
0000
0000
0000
0000
0000
0000
0000
0000
0000
0000
0000
0000
0000
0000
0000
0000
0000
0000
ENDCHAR
STARTCHAR char146
ENCODING 146
SWIDTH 500 0
DWIDTH 15 0
BBX 15 30 0 -8
BITMAP
0000
0000
0000
0000
0000
0000
0000
0000
0000
0000
0000
0000
0000
0000
0000
0000
0000
0000
0000
0000
0000
0000
0000
0000
0000
0000
0000
0000
0000
0000
ENDCHAR
STARTCHAR char147
ENCODING 147
SWIDTH 500 0
DWIDTH 15 0
BBX 15 30 0 -8
BITMAP
0000
0000
0000
0000
0000
0000
0000
0000
0000
0000
0000
0000
0000
0000
0000
0000
0000
0000
0000
0000
0000
0000
0000
0000
0000
0000
0000
0000
0000
0000
ENDCHAR
STARTCHAR char148
ENCODING 148
SWIDTH 500 0
DWIDTH 15 0
BBX 15 30 0 -8
BITMAP
0000
0000
0000
0000
0000
0000
0000
0000
0000
0000
0000
0000
0000
0000
0000
0000
0000
0000
0000
0000
0000
0000
0000
0000
0000
0000
0000
0000
0000
0000
ENDCHAR
STARTCHAR char149
ENCODING 149
SWIDTH 500 0
DWIDTH 15 0
BBX 15 30 0 -8
BITMAP
0000
0000
0000
0000
0000
0000
0000
0000
0000
0000
0000
0000
0000
0000
0000
0000
0000
0000
0000
0000
0000
0000
0000
0000
0000
0000
0000
0000
0000
0000
ENDCHAR
STARTCHAR char150
ENCODING 150
SWIDTH 500 0
DWIDTH 15 0
BBX 15 30 0 -8
BITMAP
0000
0000
0000
0000
0000
0000
0000
0000
0000
0000
0000
0000
0000
0000
0000
0000
0000
0000
0000
0000
0000
0000
0000
0000
0000
0000
0000
0000
0000
0000
ENDCHAR
STARTCHAR char151
ENCODING 151
SWIDTH 500 0
DWIDTH 15 0
BBX 15 30 0 -8
BITMAP
0000
0000
0000
0000
0000
0000
0000
0000
0000
0000
0000
0000
0000
0000
0000
0000
0000
0000
0000
0000
0000
0000
0000
0000
0000
0000
0000
0000
0000
0000
ENDCHAR
STARTCHAR char152
ENCODING 152
SWIDTH 500 0
DWIDTH 15 0
BBX 15 30 0 -8
BITMAP
0000
0000
0000
0000
0000
0000
0000
0000
0000
0000
0000
0000
0000
0000
0000
0000
0000
0000
0000
0000
0000
0000
0000
0000
0000
0000
0000
0000
0000
0000
ENDCHAR
STARTCHAR char153
ENCODING 153
SWIDTH 500 0
DWIDTH 15 0
BBX 15 30 0 -8
BITMAP
0000
0000
0000
0000
0000
0000
0000
0000
0000
0000
0000
0000
0000
0000
0000
0000
0000
0000
0000
0000
0000
0000
0000
0000
0000
0000
0000
0000
0000
0000
ENDCHAR
STARTCHAR char154
ENCODING 154
SWIDTH 500 0
DWIDTH 15 0
BBX 15 30 0 -8
BITMAP
0000
0000
0000
0000
0000
0000
0000
0000
0000
0000
0000
0000
0000
0000
0000
0000
0000
0000
0000
0000
0000
0000
0000
0000
0000
0000
0000
0000
0000
0000
ENDCHAR
STARTCHAR char155
ENCODING 155
SWIDTH 500 0
DWIDTH 15 0
BBX 15 30 0 -8
BITMAP
0000
0000
0000
0000
0000
0000
0000
0000
0000
0000
0000
0000
0000
0000
0000
0000
0000
0000
0000
0000
0000
0000
0000
0000
0000
0000
0000
0000
0000
0000
ENDCHAR
STARTCHAR char156
ENCODING 156
SWIDTH 500 0
DWIDTH 15 0
BBX 15 30 0 -8
BITMAP
0000
0000
0000
0000
0000
0000
0000
0000
0000
0000
0000
0000
0000
0000
0000
0000
0000
0000
0000
0000
0000
0000
0000
0000
0000
0000
0000
0000
0000
0000
ENDCHAR
STARTCHAR char157
ENCODING 157
SWIDTH 500 0
DWIDTH 15 0
BBX 15 30 0 -8
BITMAP
0000
0000
0000
0000
0000
0000
0000
0000
0000
0000
0000
0000
0000
0000
0000
0000
0000
0000
0000
0000
0000
0000
0000
0000
0000
0000
0000
0000
0000
0000
ENDCHAR
STARTCHAR char158
ENCODING 158
SWIDTH 500 0
DWIDTH 15 0
BBX 15 30 0 -8
BITMAP
0000
0000
0000
0000
0000
0000
0000
0000
0000
0000
0000
0000
0000
0000
0000
0000
0000
0000
0000
0000
0000
0000
0000
0000
0000
0000
0000
0000
0000
0000
ENDCHAR
STARTCHAR char159
ENCODING 159
SWIDTH 500 0
DWIDTH 15 0
BBX 15 30 0 -8
BITMAP
0000
0000
0000
0000
0000
0000
0000
0000
0000
0000
0000
0000
0000
0000
0000
0000
0000
0000
0000
0000
0000
0000
0000
0000
0000
0000
0000
0000
0000
0000
ENDCHAR
STARTCHAR char160
ENCODING 160
SWIDTH 500 0
DWIDTH 15 0
BBX 15 30 0 -8
BITMAP
0000
0000
0000
0000
0000
0000
0000
0000
0000
0000
0000
0000
0000
0000
0000
0000
0000
0000
0000
0000
0000
0000
0000
0000
0000
0000
0000
0000
0000
0000
ENDCHAR
STARTCHAR char161
ENCODING 161
SWIDTH 500 0
DWIDTH 15 0
BBX 15 30 0 -8
BITMAP
0000
0000
0000
0000
0000
0000
0000
0000
0000
0300
0780
0780
0300
0000
0000
0300
0300
0300
0300
0300
0780
0780
0780
0780
0780
0780
0300
0000
0000
0000
ENDCHAR
STARTCHAR char162
ENCODING 162
SWIDTH 500 0
DWIDTH 15 0
BBX 15 30 0 -8
BITMAP
0000
0000
0000
0000
0000
0060
0060
0060
00C0
07D8
1FD8
39F8
31B8
6198
6318
6300
6300
6600
3618
3E38
1FF0
0FC0
0C00
1800
1800
1800
0000
0000
0000
0000
ENDCHAR
STARTCHAR char163
ENCODING 163
SWIDTH 500 0
DWIDTH 15 0
BBX 15 30 0 -8
BITMAP
0000
0000
0000
0000
0380
0FE0
0E70
1C30
1870
1820
1800
1800
7F00
7F00
1800
1800
1800
7C0C
FF0C
DFCC
F9FC
7078
0000
0000
0000
0000
0000
0000
0000
0000
ENDCHAR
STARTCHAR char164
ENCODING 164
SWIDTH 500 0
DWIDTH 15 0
BBX 15 30 0 -8
BITMAP
0000
0000
0000
0000
0000
0000
0000
0000
6018
77B8
3FF0
1860
3030
3030
3030
3030
1860
3FF0
77B8
6018
0000
0000
0000
0000
0000
0000
0000
0000
0000
0000
ENDCHAR
STARTCHAR char165
ENCODING 165
SWIDTH 500 0
DWIDTH 15 0
BBX 15 30 0 -8
BITMAP
0000
0000
0000
0000
3030
3030
1860
1860
0CC0
0CC0
0780
7FF8
7FF8
0300
0300
7FF8
7FF8
0300
0300
0300
0300
0300
0000
0000
0000
0000
0000
0000
0000
0000
ENDCHAR
STARTCHAR char166
ENCODING 166
SWIDTH 500 0
DWIDTH 15 0
BBX 15 30 0 -8
BITMAP
0000
0000
0000
0300
0300
0300
0300
0300
0300
0300
0300
0300
0000
0000
0000
0000
0300
0300
0300
0300
0300
0300
0300
0300
0300
0000
0000
0000
0000
0000
ENDCHAR
STARTCHAR char167
ENCODING 167
SWIDTH 500 0
DWIDTH 15 0
BBX 15 30 0 -8
BITMAP
0000
0000
0000
0000
0780
0FC0
1CE0
1860
18E0
0CC0
0E00
0700
0F80
1DC0
18C0
1860
0C60
0EE0
07C0
0380
01C0
0CC0
1C60
1860
1CE0
0FC0
0780
0000
0000
0000
ENDCHAR
STARTCHAR char168
ENCODING 168
SWIDTH 500 0
DWIDTH 15 0
BBX 15 30 0 -8
BITMAP
0000
0000
0000
0000
1860
3CF0
3CF0
1860
0000
0000
0000
0000
0000
0000
0000
0000
0000
0000
0000
0000
0000
0000
0000
0000
0000
0000
0000
0000
0000
0000
ENDCHAR
STARTCHAR char169
ENCODING 169
SWIDTH 500 0
DWIDTH 15 0
BBX 15 30 0 -8
BITMAP
0000
0000
0000
0000
0000
0000
0780
1FE0
3870
6798
6FD8
DCEC
D84C
D80C
D84C
DCEC
6FD8
6798
3870
1FE0
0780
0000
0000
0000
0000
0000
0000
0000
0000
0000
ENDCHAR
STARTCHAR char170
ENCODING 170
SWIDTH 500 0
DWIDTH 15 0
BBX 15 30 0 -8
BITMAP
0000
0000
0000
0000
0780
1FE0
3860
3830
1070
07F0
3FB0
3830
7030
6070
71F0
3FBC
0E1C
0000
3FF8
3FF8
0000
0000
0000
0000
0000
0000
0000
0000
0000
0000
ENDCHAR
STARTCHAR char171
ENCODING 171
SWIDTH 500 0
DWIDTH 15 0
BBX 15 30 0 -8
BITMAP
0000
0000
0000
0000
0000
0000
0000
0000
0000
0000
0000
0000
0000
0618
0E38
1C70
38E0
71C0
38E0
1C70
0E38
0618
0000
0000
0000
0000
0000
0000
0000
0000
ENDCHAR
STARTCHAR char172
ENCODING 172
SWIDTH 500 0
DWIDTH 15 0
BBX 15 30 0 -8
BITMAP
0000
0000
0000
0000
0000
0000
0000
0000
0000
0000
0000
0000
3FF0
3FF0
0030
0030
0030
0030
0030
0000
0000
0000
0000
0000
0000
0000
0000
0000
0000
0000
ENDCHAR
STARTCHAR char173
ENCODING 173
SWIDTH 500 0
DWIDTH 15 0
BBX 15 30 0 -8
BITMAP
0000
0000
0000
0000
0000
0000
0000
0000
0000
0000
0000
0000
0FC0
0FC0
0FC0
0000
0000
0000
0000
0000
0000
0000
0000
0000
0000
0000
0000
0000
0000
0000
ENDCHAR
STARTCHAR char174
ENCODING 174
SWIDTH 500 0
DWIDTH 15 0
BBX 15 30 0 -8
BITMAP
0000
0000
0000
0000
0000
0000
0780
1FE0
3870
7038
6F98
CFCC
CCCC
CFCC
CF8C
CDCC
6CD8
7038
3870
1FE0
0780
0000
0000
0000
0000
0000
0000
0000
0000
0000
ENDCHAR
STARTCHAR char175
ENCODING 175
SWIDTH 500 0
DWIDTH 15 0
BBX 15 30 0 -8
BITMAP
0000
0000
0000
0000
3FF0
3FF0
0000
0000
0000
0000
0000
0000
0000
0000
0000
0000
0000
0000
0000
0000
0000
0000
0000
0000
0000
0000
0000
0000
0000
0000
ENDCHAR
STARTCHAR char176
ENCODING 176
SWIDTH 500 0
DWIDTH 15 0
BBX 15 30 0 -8
BITMAP
0000
0000
0000
0780
0FC0
1CE0
1860
1860
1CE0
0FC0
0780
0000
0000
0000
0000
0000
0000
0000
0000
0000
0000
0000
0000
0000
0000
0000
0000
0000
0000
0000
ENDCHAR
STARTCHAR char177
ENCODING 177
SWIDTH 500 0
DWIDTH 15 0
BBX 15 30 0 -8
BITMAP
0000
0000
0000
0000
0000
0000
0000
0300
0300
0300
0300
3FF0
3FF0
0300
0300
0300
0300
0000
0000
3FF0
3FF0
0000
0000
0000
0000
0000
0000
0000
0000
0000
ENDCHAR
STARTCHAR char178
ENCODING 178
SWIDTH 500 0
DWIDTH 15 0
BBX 15 30 0 -8
BITMAP
0000
0000
0780
0FC0
1CE0
1C60
08E0
01C0
0380
0760
0E60
1FE0
1FE0
0000
0000
0000
0000
0000
0000
0000
0000
0000
0000
0000
0000
0000
0000
0000
0000
0000
ENDCHAR
STARTCHAR char179
ENCODING 179
SWIDTH 500 0
DWIDTH 15 0
BBX 15 30 0 -8
BITMAP
0000
0000
0780
0FC0
1CE0
0860
03C0
0380
00C0
0860
1CE0
0FC0
0780
0000
0000
0000
0000
0000
0000
0000
0000
0000
0000
0000
0000
0000
0000
0000
0000
0000
ENDCHAR
STARTCHAR char180
ENCODING 180
SWIDTH 500 0
DWIDTH 15 0
BBX 15 30 0 -8
BITMAP
0000
0000
00C0
01C0
0380
0700
0E00
0C00
0000
0000
0000
0000
0000
0000
0000
0000
0000
0000
0000
0000
0000
0000
0000
0000
0000
0000
0000
0000
0000
0000
ENDCHAR
STARTCHAR char181
ENCODING 181
SWIDTH 500 0
DWIDTH 15 0
BBX 15 30 0 -8
BITMAP
0000
0000
0000
0000
0000
0000
0000
0000
0000
3030
3030
3030
3030
3030
3030
3030
3030
3030
3070
38F0
3FB0
3730
7000
7000
7000
7000
2000
0000
0000
0000
ENDCHAR
STARTCHAR char182
ENCODING 182
SWIDTH 500 0
DWIDTH 15 0
BBX 15 30 0 -8
BITMAP
0000
0000
0000
0000
0FF8
3FF8
3FB0
7FB0
7FB0
7FB0
7FB0
3FB0
3FB0
0FB0
01B0
01B0
01B0
01B0
01B0
01B0
01B0
01B0
0000
0000
0000
0000
0000
0000
0000
0000
ENDCHAR
STARTCHAR char183
ENCODING 183
SWIDTH 500 0
DWIDTH 15 0
BBX 15 30 0 -8
BITMAP
0000
0000
0000
0000
0000
0000
0000
0000
0000
0000
0000
0000
0000
0300
0780
0780
0300
0000
0000
0000
0000
0000
0000
0000
0000
0000
0000
0000
0000
0000
ENDCHAR
STARTCHAR char184
ENCODING 184
SWIDTH 500 0
DWIDTH 15 0
BBX 15 30 0 -8
BITMAP
0000
0000
0000
0000
0000
0000
0000
0000
0000
0000
0000
0000
0000
0000
0000
0000
0000
0000
0000
0000
0000
0300
0300
03C0
03E0
0060
01E0
01C0
0000
0000
ENDCHAR
STARTCHAR char185
ENCODING 185
SWIDTH 500 0
DWIDTH 15 0
BBX 15 30 0 -8
BITMAP
0000
0000
0300
0700
1F00
1B00
0300
0300
0300
0300
0300
1FE0
1FE0
0000
0000
0000
0000
0000
0000
0000
0000
0000
0000
0000
0000
0000
0000
0000
0000
0000
ENDCHAR
STARTCHAR char186
ENCODING 186
SWIDTH 500 0
DWIDTH 15 0
BBX 15 30 0 -8
BITMAP
0000
0000
0000
0000
0780
1FE0
3870
3030
6018
6018
6018
6018
6018
3030
3870
1FE0
0780
0000
3FF0
3FF0
0000
0000
0000
0000
0000
0000
0000
0000
0000
0000
ENDCHAR
STARTCHAR char187
ENCODING 187
SWIDTH 500 0
DWIDTH 15 0
BBX 15 30 0 -8
BITMAP
0000
0000
0000
0000
0000
0000
0000
0000
0000
0000
0000
0000
0000
6180
71C0
38E0
1C70
0E38
1C70
38E0
71C0
6180
0000
0000
0000
0000
0000
0000
0000
0000
ENDCHAR
STARTCHAR char188
ENCODING 188
SWIDTH 500 0
DWIDTH 15 0
BBX 15 30 0 -8
BITMAP
0000
0000
0300
0700
1F00
1B00
0300
0300
0300
0300
0300
1FE0
1FE0
0000
3FF0
3FF0
0000
00C0
01C0
03C0
07C0
06C0
0CC0
1FE0
1FE0
00C0
01E0
01E0
0000
0000
ENDCHAR
STARTCHAR char189
ENCODING 189
SWIDTH 500 0
DWIDTH 15 0
BBX 15 30 0 -8
BITMAP
0000
0000
0300
0700
1F00
1B00
0300
0300
0300
0300
0300
1FE0
1FE0
0000
3FF0
3FF0
0000
0780
0FC0
1CE0
1C60
08E0
01C0
0380
0760
0E60
1FE0
1FE0
0000
0000
ENDCHAR
STARTCHAR char190
ENCODING 190
SWIDTH 500 0
DWIDTH 15 0
BBX 15 30 0 -8
BITMAP
0000
0000
0780
0FC0
1CE0
0860
03C0
0380
00C0
0860
1CE0
0FC0
0780
0000
3FF0
3FF0
0000
00C0
01C0
03C0
07C0
06C0
0CC0
1FE0
1FE0
00C0
01E0
01E0
0000
0000
ENDCHAR
STARTCHAR char191
ENCODING 191
SWIDTH 500 0
DWIDTH 15 0
BBX 15 30 0 -8
BITMAP
0000
0000
0000
0000
0000
0000
0000
0000
0000
0000
0300
0780
0780
0300
0000
0000
0300
0300
0700
0E00
3C00
3030
6038
6018
6018
3870
3FF0
0FC0
0000
0000
ENDCHAR
STARTCHAR char192
ENCODING 192
SWIDTH 500 0
DWIDTH 15 0
BBX 15 30 0 -8
BITMAP
1C00
1F80
03E0
0060
0300
0300
0300
0780
0780
0780
0CC0
0CC0
0CC0
1CE0
1860
1FE0
1FE0
3030
3030
3030
FCFC
FCFC
0000
0000
0000
0000
0000
0000
0000
0000
ENDCHAR
STARTCHAR char193
ENCODING 193
SWIDTH 500 0
DWIDTH 15 0
BBX 15 30 0 -8
BITMAP
00E0
07E0
1F00
1800
0300
0300
0300
0780
0780
0780
0CC0
0CC0
0CC0
1CE0
1860
1FE0
1FE0
3030
3030
3030
FCFC
FCFC
0000
0000
0000
0000
0000
0000
0000
0000
ENDCHAR
STARTCHAR char194
ENCODING 194
SWIDTH 500 0
DWIDTH 15 0
BBX 15 30 0 -8
BITMAP
0300
0FC0
3CF0
3030
0300
0300
0300
0780
0780
0780
0CC0
0CC0
0CC0
1CE0
1860
1FE0
1FE0
3030
3030
3030
FCFC
FCFC
0000
0000
0000
0000
0000
0000
0000
0000
ENDCHAR
STARTCHAR char195
ENCODING 195
SWIDTH 500 0
DWIDTH 15 0
BBX 15 30 0 -8
BITMAP
1C30
3F30
33F0
30E0
0300
0300
0300
0780
0780
0780
0CC0
0CC0
0CC0
1CE0
1860
1FE0
1FE0
3030
3030
3030
FCFC
FCFC
0000
0000
0000
0000
0000
0000
0000
0000
ENDCHAR
STARTCHAR char196
ENCODING 196
SWIDTH 500 0
DWIDTH 15 0
BBX 15 30 0 -8
BITMAP
1860
3CF0
3CF0
1860
0300
0300
0300
0780
0780
0780
0CC0
0CC0
0CC0
1CE0
1860
1FE0
1FE0
3030
3030
3030
FCFC
FCFC
0000
0000
0000
0000
0000
0000
0000
0000
ENDCHAR
STARTCHAR char197
ENCODING 197
SWIDTH 500 0
DWIDTH 15 0
BBX 15 30 0 -8
BITMAP
0780
0CC0
0780
0000
0300
0300
0300
0780
0780
0780
0CC0
0CC0
0CC0
1CE0
1860
1FE0
1FE0
3030
3030
3030
FCFC
FCFC
0000
0000
0000
0000
0000
0000
0000
0000
ENDCHAR
STARTCHAR char198
ENCODING 198
SWIDTH 500 0
DWIDTH 15 0
BBX 15 30 0 -8
BITMAP
0000
0000
0000
0000
1FFC
1FFC
070C
0F0C
0F0C
0F6C
1B6C
1B60
1BE0
3BE0
3360
3F6C
3F6C
630C
630C
630C
F7FC
F7FC
0000
0000
0000
0000
0000
0000
0000
0000
ENDCHAR
STARTCHAR char199
ENCODING 199
SWIDTH 500 0
DWIDTH 15 0
BBX 15 30 0 -8
BITMAP
0000
0000
0000
0000
0798
1FD8
3C78
3038
7018
6018
6018
6000
6000
6000
6000
6018
6018
7018
3030
3CF0
1FE0
0780
0300
03C0
03E0
0060
01E0
01C0
0000
0000
ENDCHAR
STARTCHAR char200
ENCODING 200
SWIDTH 500 0
DWIDTH 15 0
BBX 15 30 0 -8
BITMAP
0E00
0FC0
01C0
0000
FFF8
FFF8
3018
3018
3018
3198
3198
3180
3F80
3F80
3180
3198
3198
3018
3018
3018
FFF8
FFF8
0000
0000
0000
0000
0000
0000
0000
0000
ENDCHAR
STARTCHAR char201
ENCODING 201
SWIDTH 500 0
DWIDTH 15 0
BBX 15 30 0 -8
BITMAP
00E0
07E0
0700
0000
FFF8
FFF8
3018
3018
3018
3198
3198
3180
3F80
3F80
3180
3198
3198
3018
3018
3018
FFF8
FFF8
0000
0000
0000
0000
0000
0000
0000
0000
ENDCHAR
STARTCHAR char202
ENCODING 202
SWIDTH 500 0
DWIDTH 15 0
BBX 15 30 0 -8
BITMAP
0300
0FC0
1860
0000
FFF8
FFF8
3018
3018
3018
3198
3198
3180
3F80
3F80
3180
3198
3198
3018
3018
3018
FFF8
FFF8
0000
0000
0000
0000
0000
0000
0000
0000
ENDCHAR
STARTCHAR char203
ENCODING 203
SWIDTH 500 0
DWIDTH 15 0
BBX 15 30 0 -8
BITMAP
1860
3CF0
1860
0000
FFF8
FFF8
3018
3018
3018
3198
3198
3180
3F80
3F80
3180
3198
3198
3018
3018
3018
FFF8
FFF8
0000
0000
0000
0000
0000
0000
0000
0000
ENDCHAR
STARTCHAR char204
ENCODING 204
SWIDTH 500 0
DWIDTH 15 0
BBX 15 30 0 -8
BITMAP
0E00
0FC0
01C0
0000
3FF0
3FF0
0300
0300
0300
0300
0300
0300
0300
0300
0300
0300
0300
0300
0300
0300
3FF0
3FF0
0000
0000
0000
0000
0000
0000
0000
0000
ENDCHAR
STARTCHAR char205
ENCODING 205
SWIDTH 500 0
DWIDTH 15 0
BBX 15 30 0 -8
BITMAP
01C0
0FC0
0E00
0000
3FF0
3FF0
0300
0300
0300
0300
0300
0300
0300
0300
0300
0300
0300
0300
0300
0300
3FF0
3FF0
0000
0000
0000
0000
0000
0000
0000
0000
ENDCHAR
STARTCHAR char206
ENCODING 206
SWIDTH 500 0
DWIDTH 15 0
BBX 15 30 0 -8
BITMAP
0300
0FC0
1860
0000
3FF0
3FF0
0300
0300
0300
0300
0300
0300
0300
0300
0300
0300
0300
0300
0300
0300
3FF0
3FF0
0000
0000
0000
0000
0000
0000
0000
0000
ENDCHAR
STARTCHAR char207
ENCODING 207
SWIDTH 500 0
DWIDTH 15 0
BBX 15 30 0 -8
BITMAP
1860
3CF0
1860
0000
3FF0
3FF0
0300
0300
0300
0300
0300
0300
0300
0300
0300
0300
0300
0300
0300
0300
3FF0
3FF0
0000
0000
0000
0000
0000
0000
0000
0000
ENDCHAR
STARTCHAR char208
ENCODING 208
SWIDTH 500 0
DWIDTH 15 0
BBX 15 30 0 -8
BITMAP
0000
0000
0000
0000
FF00
FFC0
31E0
3070
3030
3038
3018
3018
FE18
FE18
3018
3018
3038
3030
3070
31E0
FFC0
FF00
0000
0000
0000
0000
0000
0000
0000
0000
ENDCHAR
STARTCHAR char209
ENCODING 209
SWIDTH 500 0
DWIDTH 15 0
BBX 15 30 0 -8
BITMAP
1E30
3FF0
31E0
0000
F0FC
F8FC
3830
3C30
3C30
3630
3630
3330
3330
3330
31B0
31B0
30F0
30F0
30F0
3070
FC70
FC30
0000
0000
0000
0000
0000
0000
0000
0000
ENDCHAR
STARTCHAR char210
ENCODING 210
SWIDTH 500 0
DWIDTH 15 0
BBX 15 30 0 -8
BITMAP
0E00
0FC0
01C0
0000
0FC0
3FF0
3870
7038
6018
6018
6018
6018
6018
6018
6018
6018
6018
6018
7038
3870
3FF0
0FC0
0000
0000
0000
0000
0000
0000
0000
0000
ENDCHAR
STARTCHAR char211
ENCODING 211
SWIDTH 500 0
DWIDTH 15 0
BBX 15 30 0 -8
BITMAP
01C0
0FC0
0E00
0000
0FC0
3FF0
3870
7038
6018
6018
6018
6018
6018
6018
6018
6018
6018
6018
7038
3870
3FF0
0FC0
0000
0000
0000
0000
0000
0000
0000
0000
ENDCHAR
STARTCHAR char212
ENCODING 212
SWIDTH 500 0
DWIDTH 15 0
BBX 15 30 0 -8
BITMAP
0300
0FC0
1860
0000
0FC0
3FF0
3870
7038
6018
6018
6018
6018
6018
6018
6018
6018
6018
6018
7038
3870
3FF0
0FC0
0000
0000
0000
0000
0000
0000
0000
0000
ENDCHAR
STARTCHAR char213
ENCODING 213
SWIDTH 500 0
DWIDTH 15 0
BBX 15 30 0 -8
BITMAP
1E30
3FF0
31E0
0000
0FC0
3FF0
3870
7038
6018
6018
6018
6018
6018
6018
6018
6018
6018
6018
7038
3870
3FF0
0FC0
0000
0000
0000
0000
0000
0000
0000
0000
ENDCHAR
STARTCHAR char214
ENCODING 214
SWIDTH 500 0
DWIDTH 15 0
BBX 15 30 0 -8
BITMAP
1860
3CF0
1860
0000
0FC0
3FF0
3870
7038
6018
6018
6018
6018
6018
6018
6018
6018
6018
6018
7038
3870
3FF0
0FC0
0000
0000
0000
0000
0000
0000
0000
0000
ENDCHAR
STARTCHAR char215
ENCODING 215
SWIDTH 500 0
DWIDTH 15 0
BBX 15 30 0 -8
BITMAP
0000
0000
0000
0000
0000
0000
0000
0000
2010
7038
3870
1CE0
0FC0
0780
0780
0FC0
1CE0
3870
7038
2010
0000
0000
0000
0000
0000
0000
0000
0000
0000
0000
ENDCHAR
STARTCHAR char216
ENCODING 216
SWIDTH 500 0
DWIDTH 15 0
BBX 15 30 0 -8
BITMAP
0000
0000
0000
0000
0FD8
3FF8
3870
7078
6078
60D8
61D8
6198
6318
6318
6618
6E18
6C18
7818
7838
3870
7FF0
6FC0
0000
0000
0000
0000
0000
0000
0000
0000
ENDCHAR
STARTCHAR char217
ENCODING 217
SWIDTH 500 0
DWIDTH 15 0
BBX 15 30 0 -8
BITMAP
0E00
0FC0
01C0
0000
FCFC
FCFC
3030
3030
3030
3030
3030
3030
3030
3030
3030
3030
3030
3030
3870
1CE0
1FE0
0780
0000
0000
0000
0000
0000
0000
0000
0000
ENDCHAR
STARTCHAR char218
ENCODING 218
SWIDTH 500 0
DWIDTH 15 0
BBX 15 30 0 -8
BITMAP
01C0
0FC0
0E00
0000
FCFC
FCFC
3030
3030
3030
3030
3030
3030
3030
3030
3030
3030
3030
3030
3870
1CE0
1FE0
0780
0000
0000
0000
0000
0000
0000
0000
0000
ENDCHAR
STARTCHAR char219
ENCODING 219
SWIDTH 500 0
DWIDTH 15 0
BBX 15 30 0 -8
BITMAP
0300
0FC0
1860
0000
FCFC
FCFC
3030
3030
3030
3030
3030
3030
3030
3030
3030
3030
3030
3030
3870
1CE0
1FE0
0780
0000
0000
0000
0000
0000
0000
0000
0000
ENDCHAR
STARTCHAR char220
ENCODING 220
SWIDTH 500 0
DWIDTH 15 0
BBX 15 30 0 -8
BITMAP
1860
3CF0
1860
0000
FCFC
FCFC
3030
3030
3030
3030
3030
3030
3030
3030
3030
3030
3030
3030
3870
1CE0
1FE0
0780
0000
0000
0000
0000
0000
0000
0000
0000
ENDCHAR
STARTCHAR char221
ENCODING 221
SWIDTH 500 0
DWIDTH 15 0
BBX 15 30 0 -8
BITMAP
01C0
0FC0
0E00
0000
FCFC
FCFC
3030
1860
1860
0CC0
0CC0
0780
0780
0300
0300
0300
0300
0300
0300
0300
1FE0
1FE0
0000
0000
0000
0000
0000
0000
0000
0000
ENDCHAR
STARTCHAR char222
ENCODING 222
SWIDTH 500 0
DWIDTH 15 0
BBX 15 30 0 -8
BITMAP
0000
0000
0000
0000
7E00
7E00
1800
1800
1800
1FE0
1FF0
1838
1818
1818
1838
1FF0
1FE0
1800
1800
1800
7E00
7E00
0000
0000
0000
0000
0000
0000
0000
0000
ENDCHAR
STARTCHAR char223
ENCODING 223
SWIDTH 500 0
DWIDTH 15 0
BBX 15 30 0 -8
BITMAP
0000
0000
0000
0000
0780
1FE0
1CE0
3870
3030
3060
30E0
33C0
33F0
3070
3038
3018
3018
3018
3638
3670
F7F0
F3C0
0000
0000
0000
0000
0000
0000
0000
0000
ENDCHAR
STARTCHAR char224
ENCODING 224
SWIDTH 500 0
DWIDTH 15 0
BBX 15 30 0 -8
BITMAP
0000
0000
0C00
0E00
0700
0380
01C0
00C0
0000
0780
1FE0
3860
3830
1070
07F0
3FB0
3830
7030
6070
71F0
3FBC
1E1C
0000
0000
0000
0000
0000
0000
0000
0000
ENDCHAR
STARTCHAR char225
ENCODING 225
SWIDTH 500 0
DWIDTH 15 0
BBX 15 30 0 -8
BITMAP
0000
0000
00C0
01C0
0380
0700
0E00
0C00
0000
0780
1FE0
3860
3830
1070
07F0
3FB0
3830
7030
6070
71F0
3FBC
1E1C
0000
0000
0000
0000
0000
0000
0000
0000
ENDCHAR
STARTCHAR char226
ENCODING 226
SWIDTH 500 0
DWIDTH 15 0
BBX 15 30 0 -8
BITMAP
0000
0000
0000
0300
0780
0FC0
1CE0
1860
0000
0780
1FE0
3860
3830
1070
07F0
3FB0
3830
7030
6070
71F0
3FBC
1E1C
0000
0000
0000
0000
0000
0000
0000
0000
ENDCHAR
STARTCHAR char227
ENCODING 227
SWIDTH 500 0
DWIDTH 15 0
BBX 15 30 0 -8
BITMAP
0000
0000
0000
0000
1C30
3F30
33F0
30E0
0000
0780
1FE0
3860
3830
1070
07F0
3FB0
3830
7030
6070
71F0
3FBC
1E1C
0000
0000
0000
0000
0000
0000
0000
0000
ENDCHAR
STARTCHAR char228
ENCODING 228
SWIDTH 500 0
DWIDTH 15 0
BBX 15 30 0 -8
BITMAP
0000
0000
0000
1860
3CF0
3CF0
1860
0000
0000
0780
1FE0
3860
3830
1070
07F0
3FB0
3830
7030
6070
71F0
3FBC
1E1C
0000
0000
0000
0000
0000
0000
0000
0000
ENDCHAR
STARTCHAR char229
ENCODING 229
SWIDTH 500 0
DWIDTH 15 0
BBX 15 30 0 -8
BITMAP
0000
0000
0300
0780
0CC0
0CC0
0780
0300
0000
0780
1FE0
3860
3830
1070
07F0
3FB0
3830
7030
6070
71F0
3FBC
1E1C
0000
0000
0000
0000
0000
0000
0000
0000
ENDCHAR
STARTCHAR char230
ENCODING 230
SWIDTH 500 0
DWIDTH 15 0
BBX 15 30 0 -8
BITMAP
0000
0000
0000
0000
0000
0000
0000
0000
0000
3CF0
7FF8
E798
E30C
470C
3FFC
7BFC
E300
C300
C30C
E79C
7DF8
38F0
0000
0000
0000
0000
0000
0000
0000
0000
ENDCHAR
STARTCHAR char231
ENCODING 231
SWIDTH 500 0
DWIDTH 15 0
BBX 15 30 0 -8
BITMAP
0000
0000
0000
0000
0000
0000
0000
0000
0000
0798
1FD8
3878
3038
6018
6018
6000
6000
6000
3018
3838
1FF0
07C0
0300
03C0
03E0
0060
01E0
01C0
0000
0000
ENDCHAR
STARTCHAR char232
ENCODING 232
SWIDTH 500 0
DWIDTH 15 0
BBX 15 30 0 -8
BITMAP
0000
0000
0C00
0E00
0700
0380
01C0
00C0
0000
07C0
1FF0
3830
3018
6018
7FF8
7FF8
6000
6000
3018
3838
1FF0
07C0
0000
0000
0000
0000
0000
0000
0000
0000
ENDCHAR
STARTCHAR char233
ENCODING 233
SWIDTH 500 0
DWIDTH 15 0
BBX 15 30 0 -8
BITMAP
0000
0000
00C0
01C0
0380
0700
0E00
0C00
0000
07C0
1FF0
3830
3018
6018
7FF8
7FF8
6000
6000
3018
3838
1FF0
07C0
0000
0000
0000
0000
0000
0000
0000
0000
ENDCHAR
STARTCHAR char234
ENCODING 234
SWIDTH 500 0
DWIDTH 15 0
BBX 15 30 0 -8
BITMAP
0000
0000
0000
0300
0780
0FC0
1CE0
1860
0000
07C0
1FF0
3830
3018
6018
7FF8
7FF8
6000
6000
3018
3838
1FF0
07C0
0000
0000
0000
0000
0000
0000
0000
0000
ENDCHAR
STARTCHAR char235
ENCODING 235
SWIDTH 500 0
DWIDTH 15 0
BBX 15 30 0 -8
BITMAP
0000
0000
0000
1860
3CF0
3CF0
1860
0000
0000
07C0
1FF0
3830
3018
6018
7FF8
7FF8
6000
6000
3018
3838
1FF0
07C0
0000
0000
0000
0000
0000
0000
0000
0000
ENDCHAR
STARTCHAR char236
ENCODING 236
SWIDTH 500 0
DWIDTH 15 0
BBX 15 30 0 -8
BITMAP
0000
0000
1800
1C00
0E00
0700
0380
0180
0000
3F00
3F00
0300
0300
0300
0300
0300
0300
0300
0300
0300
3FF0
3FF0
0000
0000
0000
0000
0000
0000
0000
0000
ENDCHAR
STARTCHAR char237
ENCODING 237
SWIDTH 500 0
DWIDTH 15 0
BBX 15 30 0 -8
BITMAP
0000
0000
0180
0380
0700
0E00
1C00
1800
0000
3F00
3F00
0300
0300
0300
0300
0300
0300
0300
0300
0300
3FF0
3FF0
0000
0000
0000
0000
0000
0000
0000
0000
ENDCHAR
STARTCHAR char238
ENCODING 238
SWIDTH 500 0
DWIDTH 15 0
BBX 15 30 0 -8
BITMAP
0000
0000
0000
0600
0F00
1F80
39C0
30C0
0000
3F00
3F00
0300
0300
0300
0300
0300
0300
0300
0300
0300
3FF0
3FF0
0000
0000
0000
0000
0000
0000
0000
0000
ENDCHAR
STARTCHAR char239
ENCODING 239
SWIDTH 500 0
DWIDTH 15 0
BBX 15 30 0 -8
BITMAP
0000
0000
0000
30C0
79E0
79E0
30C0
0000
0000
3F00
3F00
0300
0300
0300
0300
0300
0300
0300
0300
0300
3FF0
3FF0
0000
0000
0000
0000
0000
0000
0000
0000
ENDCHAR
STARTCHAR char240
ENCODING 240
SWIDTH 500 0
DWIDTH 15 0
BBX 15 30 0 -8
BITMAP
0000
0000
0000
0000
3C60
3FE0
0780
1FC0
18E0
07E0
1FF0
3870
3030
6018
6018
6018
6018
6018
3030
3870
1FE0
0780
0000
0000
0000
0000
0000
0000
0000
0000
ENDCHAR
STARTCHAR char241
ENCODING 241
SWIDTH 500 0
DWIDTH 15 0
BBX 15 30 0 -8
BITMAP
0000
0000
0000
3860
7E60
67E0
61C0
0000
0000
F380
F7E0
3C60
3870
3030
3030
3030
3030
3030
3030
3030
FCFC
FCFC
0000
0000
0000
0000
0000
0000
0000
0000
ENDCHAR
STARTCHAR char242
ENCODING 242
SWIDTH 500 0
DWIDTH 15 0
BBX 15 30 0 -8
BITMAP
0000
0000
0C00
0E00
0700
0380
01C0
00C0
0000
0780
1FE0
3870
3030
6018
6018
6018
6018
6018
3030
3870
1FE0
0780
0000
0000
0000
0000
0000
0000
0000
0000
ENDCHAR
STARTCHAR char243
ENCODING 243
SWIDTH 500 0
DWIDTH 15 0
BBX 15 30 0 -8
BITMAP
0000
0000
00C0
01C0
0380
0700
0E00
0C00
0000
0780
1FE0
3870
3030
6018
6018
6018
6018
6018
3030
3870
1FE0
0780
0000
0000
0000
0000
0000
0000
0000
0000
ENDCHAR
STARTCHAR char244
ENCODING 244
SWIDTH 500 0
DWIDTH 15 0
BBX 15 30 0 -8
BITMAP
0000
0000
0000
0300
0780
0FC0
1CE0
1860
0000
0780
1FE0
3870
3030
6018
6018
6018
6018
6018
3030
3870
1FE0
0780
0000
0000
0000
0000
0000
0000
0000
0000
ENDCHAR
STARTCHAR char245
ENCODING 245
SWIDTH 500 0
DWIDTH 15 0
BBX 15 30 0 -8
BITMAP
0000
0000
0000
1C30
3F30
33F0
30E0
0000
0000
0780
1FE0
3870
3030
6018
6018
6018
6018
6018
3030
3870
1FE0
0780
0000
0000
0000
0000
0000
0000
0000
0000
ENDCHAR
STARTCHAR char246
ENCODING 246
SWIDTH 500 0
DWIDTH 15 0
BBX 15 30 0 -8
BITMAP
0000
0000
0000
1860
3CF0
3CF0
1860
0000
0000
0780
1FE0
3870
3030
6018
6018
6018
6018
6018
3030
3870
1FE0
0780
0000
0000
0000
0000
0000
0000
0000
0000
ENDCHAR
STARTCHAR char247
ENCODING 247
SWIDTH 500 0
DWIDTH 15 0
BBX 15 30 0 -8
BITMAP
0000
0000
0000
0000
0000
0000
0000
0000
0300
0780
0300
0000
0000
3FF0
3FF0
0000
0000
0300
0780
0300
0000
0000
0000
0000
0000
0000
0000
0000
0000
0000
ENDCHAR
STARTCHAR char248
ENCODING 248
SWIDTH 500 0
DWIDTH 15 0
BBX 15 30 0 -8
BITMAP
0000
0000
0000
0000
0000
0000
0000
0000
0000
0798
1FF8
3870
30F0
61D8
6398
6318
6718
6E18
3C30
3870
7FE0
6780
0000
0000
0000
0000
0000
0000
0000
0000
ENDCHAR
STARTCHAR char249
ENCODING 249
SWIDTH 500 0
DWIDTH 15 0
BBX 15 30 0 -8
BITMAP
0000
0000
0C00
0E00
0700
0380
01C0
00C0
0000
F0F0
F0F0
3030
3030
3030
3030
3030
3030
3030
3070
38F0
1FBC
0F3C
0000
0000
0000
0000
0000
0000
0000
0000
ENDCHAR
STARTCHAR char250
ENCODING 250
SWIDTH 500 0
DWIDTH 15 0
BBX 15 30 0 -8
BITMAP
0000
0000
00C0
01C0
0380
0700
0E00
0C00
0000
F0F0
F0F0
3030
3030
3030
3030
3030
3030
3030
3070
38F0
1FBC
0F3C
0000
0000
0000
0000
0000
0000
0000
0000
ENDCHAR
STARTCHAR char251
ENCODING 251
SWIDTH 500 0
DWIDTH 15 0
BBX 15 30 0 -8
BITMAP
0000
0000
0000
0600
0F00
1F80
39C0
30C0
0000
F0F0
F0F0
3030
3030
3030
3030
3030
3030
3030
3070
38F0
1FBC
0F3C
0000
0000
0000
0000
0000
0000
0000
0000
ENDCHAR
STARTCHAR char252
ENCODING 252
SWIDTH 500 0
DWIDTH 15 0
BBX 15 30 0 -8
BITMAP
0000
0000
0000
30C0
79E0
79E0
30C0
0000
0000
F0F0
F0F0
3030
3030
3030
3030
3030
3030
3030
3070
38F0
1FBC
0F3C
0000
0000
0000
0000
0000
0000
0000
0000
ENDCHAR
STARTCHAR char253
ENCODING 253
SWIDTH 500 0
DWIDTH 15 0
BBX 15 30 0 -8
BITMAP
0000
0000
00C0
01C0
0380
0700
0E00
0C00
0000
FCFC
FCFC
3830
1830
1860
0C60
0C60
06C0
06C0
03C0
0380
0180
2180
7300
6300
7700
3E00
1C00
0000
0000
0000
ENDCHAR
STARTCHAR char254
ENCODING 254
SWIDTH 500 0
DWIDTH 15 0
BBX 15 30 0 -8
BITMAP
0000
0000
0000
F000
F000
3000
3000
3000
3000
33C0
37E0
3C70
3830
3018
3018
3018
3018
3018
3830
3C70
37E0
33C0
3000
3000
3000
FC00
FC00
0000
0000
0000
ENDCHAR
STARTCHAR char255
ENCODING 255
SWIDTH 500 0
DWIDTH 15 0
BBX 15 30 0 -8
BITMAP
0000
0000
0000
1860
3CF0
3CF0
1860
0000
0000
FCFC
FCFC
3830
1830
1860
0C60
0C60
06C0
06C0
03C0
0380
0180
2180
7300
6300
7700
3E00
1C00
0000
0000
0000
ENDCHAR
ENDFONT
